<svg viewBox="0 0 64 64" xmlns="http://www.w3.org/2000/svg"><g data-name="24-download"><path d="M63 27a11.993 11.993 0 0 0-11.066-11.953A8.961 8.961 0 0 0 43 5a8.949 8.949 0 0 0-5.294 1.733 16.975 16.975 0 0 0-29.4 14.432A9 9 0 0 0 10 39h42v-.05A12 12 0 0 0 63 27Z" fill="#ecd9ff" class="fill-f6f0e5"></path><path d="M27 33v16h-8l13 14 13-14h-8V33H27z" fill="#ffcff9" class="fill-e36861"></path><path d="M53 14.164V14A10.011 10.011 0 0 0 43 4a9.891 9.891 0 0 0-5.141 1.432A17.981 17.981 0 0 0 7 18a17.66 17.66 0 0 0 .17 2.412A10 10 0 0 0 10 40h13a1 1 0 0 0 0-2H10a8 8 0 0 1-1.507-15.853 1 1 0 0 0 .8-1.168A15.98 15.98 0 0 1 36.958 7.4a1 1 0 0 0 1.338.144A7.988 7.988 0 0 1 51 14a8.231 8.231 0 0 1-.059.934 1 1 0 0 0 .916 1.11 10.989 10.989 0 0 1 .061 21.908.982.982 0 0 0-.224.048H41a1 1 0 0 0 0 2h11a.916.916 0 0 0 .38-.082A12.99 12.99 0 0 0 53 14.164Z" fill="#000000" class="fill-000000"></path><path d="M45 48h-7V33a1 1 0 0 0-1-1H27a1 1 0 0 0-1 1v15h-7a1 1 0 0 0-.732 1.681l13 14a1 1 0 0 0 1.464 0l13-14A1 1 0 0 0 45 48ZM32 61.53 21.293 50H27a1 1 0 0 0 1-1V34h8v15a1 1 0 0 0 1 1h5.707ZM19.615 5.077a14.083 14.083 0 0 0-7.032 6.46 1 1 0 0 0 .424 1.35 1 1 0 0 0 1.349-.424 12.068 12.068 0 0 1 6.031-5.54 1 1 0 1 0-.772-1.846ZM22 4h2v2h-2z" fill="#000000" class="fill-000000"></path></g></svg>