<svg viewBox="0 0 32 32" xml:space="preserve" xmlns="http://www.w3.org/2000/svg"><path fill="#f7beeb" d="M5.5 9.5h25v18h-25z" class="fill-fff176"></path><path d="M30.5 9.5h-25v3l11.146 7.754a2 2 0 0 0 2.709 0L30.5 12.5v-3z" fill="#dbb2de" class="fill-e6d96a"></path><path d="M30.5 7.5h-25v2l11.146 10.254a2 2 0 0 0 2.709 0L30.5 9.5v-2z" fill="#ffbaee" class="fill-fff5a2"></path><path fill="#e3e3e3" d="M5.5 7.5h25V9h-25z" class="fill-ffffff"></path><path d="M30.5 26a.5.5 0 0 1-.5-.5v-18a.5.5 0 0 1 1 0v18a.5.5 0 0 1-.5.5z" fill="#000000" class="fill-455a64"></path><path d="M30.5 28h-9a.5.5 0 0 1 0-1H30v-4.5a.5.5 0 0 1 1 0v5a.5.5 0 0 1-.5.5z" fill="#000000" class="fill-455a64"></path><path d="M30.5 27a.492.492 0 0 1-.315-.112l-8-6.5a.499.499 0 1 1 .631-.775l8 6.5A.499.499 0 0 1 30.5 27zM18 20.777a2.497 2.497 0 0 1-1.693-.655l-7.021-6.463a.5.5 0 0 1 .678-.736l7.021 6.463a1.506 1.506 0 0 0 2.031 0L30 9.28V8H11a.5.5 0 0 1 0-1h19.5a.5.5 0 0 1 .5.5v2c0 .14-.059.273-.161.368L19.693 20.122a2.493 2.493 0 0 1-1.693.655z" fill="#000000" class="fill-455a64"></path><path d="m7.76 21.789-2.978-6.243a3.002 3.002 0 0 1 1.88-4.175l1.636-.47c.466-.134.77-.584.719-1.066l-.639-6.018a1.5 1.5 0 0 0-2.139-1.194l-1.48.708c-1.33.637-2.353 1.818-2.683 3.257-2.113 9.237 2.433 18.771 10.94 22.943 1.325.649 2.887.599 4.219-.034l1.482-.704a1.5 1.5 0 0 0 .418-2.414l-4.273-4.283a.997.997 0 0 0-1.28-.113l-1.396.975a3 3 0 0 1-4.426-1.169z" fill="#e3e3e3" class="fill-ffffff"></path><path d="M18.718 28.793a1.493 1.493 0 0 0 .563-2.229l-3.319-3.327a.999.999 0 0 0-1.281-.113l-1.396.976c-1.476 1.031-3.497.526-4.344-1.035a2.967 2.967 0 0 1-1.182-1.275l-2.978-6.243a3.002 3.002 0 0 1 1.88-4.175l1.636-.47c.466-.134.77-.584.719-1.066l-.638-6.019c-.006-.052-.024-.1-.035-.151a1.473 1.473 0 0 0-1.005.099l-1.482.709c-1.329.635-2.352 1.817-2.681 3.255-1.511 6.604.394 13.348 4.705 18.188a20.366 20.366 0 0 0 5.137 3.614c1.325.649 2.887.599 4.219-.034l1.482-.704z" fill="#d4b5ff" class="fill-1de9b6"></path><path d="M15.052 30.495a5.074 5.074 0 0 1-2.255-.515A20.887 20.887 0 0 1 1.589 6.477c.353-1.535 1.456-2.88 2.954-3.597l1.48-.708a1.997 1.997 0 0 1 2.851 1.593l.639 6.018a1.5 1.5 0 0 1-1.078 1.6l-1.635.469a2.5 2.5 0 0 0-1.567 3.48l2.978 6.243A2.485 2.485 0 0 0 10.473 23c.512 0 1.005-.156 1.427-.452l1.396-.975a1.528 1.528 0 0 1 1.921.171l4.272 4.282a2.002 2.002 0 0 1-.556 3.219l-1.482.704a5.632 5.632 0 0 1-2.399.546zM6.886 2.975a.982.982 0 0 0-.431.1l-1.48.708C3.75 4.368 2.849 5.459 2.563 6.7a19.893 19.893 0 0 0 10.673 22.382c1.14.56 2.568.541 3.784-.036l1.482-.704a.99.99 0 0 0 .557-.733.985.985 0 0 0-.277-.876l-4.273-4.283a.51.51 0 0 0-.64-.058l-1.396.976a3.475 3.475 0 0 1-2 .632 3.476 3.476 0 0 1-3.164-1.995l-2.978-6.243a3.5 3.5 0 0 1 2.194-4.872l1.636-.47a.5.5 0 0 0 .359-.533L7.881 3.87a1 1 0 0 0-.995-.895z" fill="#000000" class="fill-455a64"></path><path d="M6.759 11.41a.5.5 0 0 1-.496-.447l-.639-6.017a.5.5 0 0 1 .994-.106l.639 6.017a.5.5 0 0 1-.498.553zM16.88 27.955a.502.502 0 0 1-.354-.146l-4.273-4.283a.5.5 0 0 1 .707-.707l4.273 4.283a.5.5 0 0 1-.353.853z" fill="#000000" class="fill-455a64"></path></svg>