<svg viewBox="0 0 32 32" xml:space="preserve" xmlns="http://www.w3.org/2000/svg"><circle cx="16" cy="16" fill="#fccaf9" r="14.5" class="fill-eceff1"></circle><path d="M16 31C7.729 31 1 24.271 1 16S7.729 1 16 1s15 6.729 15 15-6.729 15-15 15zm0-29C8.28 2 2 8.28 2 16s6.28 14 14 14 14-6.28 14-14S23.72 2 16 2z" fill="#000000" class="fill-455a64"></path><circle cx="16" cy="25.5" fill="#e86d9c" r="2" class="fill-fff176"></circle><path d="M14.5 26.5a1.994 1.994 0 0 1 3.465-1.354A2 2 0 0 0 14 25.5c0 .523.206.996.535 1.354a2.178 2.178 0 0 1-.035-.354z" fill="#fff5f5" class="fill-ffffff"></path><path d="M16 28a2.503 2.503 0 0 1-2.307-3.467.499.499 0 1 1 .922.386A1.502 1.502 0 0 0 16 26.999c.827 0 1.5-.673 1.5-1.5S16.827 24 16 24a.5.5 0 0 1 0-1c1.378 0 2.5 1.122 2.5 2.5S17.378 28 16 28z" fill="#000000" class="fill-455a64"></path><path d="M16 21.5a1.5 1.5 0 0 1-1.5-1.5v-.5c0-1.77.509-3.048 1.602-4.022.373-.333.774-.622 1.163-.9C18.563 13.645 19.5 12.972 19.5 11c0-1.994-1.279-3.029-2.476-3.334-1.409-.36-3.386.125-4.707 2.551a1.5 1.5 0 0 1-2.635-1.433c1.765-3.245 4.939-4.827 8.081-4.024C20.597 5.479 22.5 7.987 22.5 11c0 3.511-2.015 4.957-3.485 6.014-.341.244-.661.475-.917.702-.239.213-.598.534-.598 1.784v.5a1.5 1.5 0 0 1-1.5 1.5z" fill="#e86d9c" class="fill-fff176"></path><path d="M15.5 20.5V20c0-1.77.509-3.048 1.602-4.022.373-.333.774-.622 1.163-.9 1.298-.933 2.235-1.605 2.235-3.577 0-1.454-.682-2.393-1.514-2.916.313.501.514 1.131.514 1.915 0 1.972-.938 2.645-2.235 3.577-.389.278-.79.567-1.163.9C15.009 15.952 14.5 17.23 14.5 19v.5c0 .678.453 1.244 1.07 1.43a1.494 1.494 0 0 1-.07-.43zM10.683 9.283c1.765-3.245 4.939-4.827 8.081-4.024.271.068.523.168.776.269a6.272 6.272 0 0 0-1.776-.769c-3.142-.803-6.316.779-8.081 4.024a1.498 1.498 0 0 0 1.201 2.21 1.494 1.494 0 0 1-.201-1.71z" fill="#fff5f5" class="fill-ffffff"></path><path d="M16 22c-1.103 0-2-.897-2-2v-.5c0-1.923.562-3.319 1.769-4.396.402-.359.829-.665 1.205-.934C18.238 13.262 19 12.714 19 11c0-2.148-1.606-2.724-2.099-2.85-1.225-.314-2.958.128-4.145 2.306a1.986 1.986 0 0 1-1.19.962 1.994 1.994 0 0 1-1.522-.162 1.98 1.98 0 0 1-.962-1.19 1.99 1.99 0 0 1 .161-1.522c.091-.168.186-.332.285-.491a.5.5 0 1 1 .85.526 9.093 9.093 0 0 0-.256.442.993.993 0 0 0-.081.762.994.994 0 0 0 .481.595.996.996 0 0 0 1.356-.399c1.461-2.681 3.678-3.203 5.271-2.796C18.527 7.533 20 8.72 20 11c0 2.227-1.132 3.041-2.442 3.982-.358.256-.761.545-1.124.869C15.456 16.724 15 17.883 15 19.5v.5c0 .551.449 1 1 1s1-.449 1-1v-.5c0-1.36.395-1.827.765-2.157.268-.238.603-.48.959-.735C20.184 15.558 22 14.253 22 11c0-2.78-1.752-5.093-4.359-5.757-2.149-.549-4.348.101-6.037 1.781a.5.5 0 0 1-.705-.709c1.945-1.935 4.495-2.678 6.989-2.041C20.945 5.052 23 7.755 23 11c0 3.766-2.222 5.362-3.692 6.418-.327.235-.633.454-.878.671-.181.162-.43.385-.43 1.411v.5c0 1.103-.897 2-2 2z" fill="#000000" class="fill-455a64"></path></svg>