<svg viewBox="0 0 24 24" xmlns="http://www.w3.org/2000/svg"><path d="M21 10.66V20a3 3 0 0 1-3 3H6a3 3 0 0 1-3-3V4a3 3 0 0 1 3-3h5.34a4 4 0 0 1 2.83 1.17l5.66 5.66A4 4 0 0 1 21 10.66Z" fill="#f2d9ef" class="fill-f19b5f"></path><path d="M21 10.66V15a3 3 0 0 1-3 3H6a3 3 0 0 1-3-3V4a3 3 0 0 1 3-3h5.34a4 4 0 0 1 2.83 1.17l5.66 5.66A4 4 0 0 1 21 10.66Z" fill="#f1baf2" class="fill-ffce69"></path><path d="M20.64 9H16a3 3 0 0 1-3-3V1.36a4.089 4.089 0 0 1 1.17.81l5.66 5.66A4.089 4.089 0 0 1 20.64 9Z" fill="#b476b5" class="fill-ffe5b6"></path><g data-name="Layer 4"><path d="M6 24h12a4 4 0 0 0 4-4v-9.343a4.968 4.968 0 0 0-.433-2.016.85.85 0 0 0-.055-.1 4.976 4.976 0 0 0-.977-1.416l-5.656-5.661a4.981 4.981 0 0 0-1.417-.977c-.035-.018-.066-.04-.1-.055A4.984 4.984 0 0 0 11.343 0H6a4 4 0 0 0-4 4v16a4 4 0 0 0 4 4ZM18.586 8H16a2 2 0 0 1-2-2V3.414ZM4 4a2 2 0 0 1 2-2h5.343a3 3 0 0 1 .657.078V6a4 4 0 0 0 4 4h3.92a2.953 2.953 0 0 1 .08.657V20a2 2 0 0 1-2 2H6a2 2 0 0 1-2-2Z" fill="#000000" class="fill-6c2e7c"></path><path d="M7 20h10a1 1 0 0 0 0-2H7a1 1 0 0 0 0 2ZM7 16h4a1 1 0 0 0 0-2H7a1 1 0 0 0 0 2Z" fill="#000000" class="fill-6c2e7c"></path></g></svg>