<svg viewBox="0 0 512 512" xmlns="http://www.w3.org/2000/svg"><g data-name="/ FILLED_OUTLINE"><path d="m435.314 99.314-70.628-70.628A16 16 0 0 0 353.373 24H88a16 16 0 0 0-16 16v432a16 16 0 0 0 16 16h336a16 16 0 0 0 16-16V110.627a16 16 0 0 0-4.686-11.313Z" fill="#e5b6ed" class="fill-31c292"></path><path d="M85.324 487.759A16.038 16.038 0 0 0 88 488h336a16 16 0 0 0 16-16V120c0 198.78-157.608 360.745-354.676 367.759Z" fill="#886aa3" class="fill-2aa57d"></path><path d="m216 264-88 72v152h176V336l-88-72z" fill="#c762ae" class="fill-0071af"></path><path d="M184 376h64v112h-64z" fill="#ebb4f7" class="fill-7db6d6"></path><path d="M128 488h176V336l-1.468-1.2A176.03 176.03 0 0 1 128 488Z" fill="#140096" class="fill-006095"></path><path d="M184 478.898V488h64v-47.268a175.887 175.887 0 0 1-64 38.166Z" fill="#ad63b5" class="fill-5b849b"></path><path d="M184 56h144v16H184zM104 144h24v16h-24zM104 192h24v16h-24zM104 240h24v16h-24zM144 96h192v16H144zM144 144h264v16H144zM144 192h264v16H144zM144 240h48v16h-48zM240 240h168v16H240zM104 96h24v16h-24z" fill="#121f1b" class="fill-bdecdc"></path><path d="m435.314 99.314-70.628-70.628a15.974 15.974 0 0 0-4.686-3.23V88a16 16 0 0 0 16 16h62.544a15.978 15.978 0 0 0-3.23-4.686Z" fill="#bd71d9" class="fill-00b378"></path><path d="M248 456h240v16a16 16 0 0 1-16 16H264a16 16 0 0 1-16-16v-16Z" fill="#e8c3c3" class="fill-bebebe"></path><path d="M456 296H296a16 16 0 0 0-16 16v144h192V312a16 16 0 0 0-16-16Z" fill="#ffffff" class="fill-dfdfdf"></path><circle cx="376" cy="376" r="48" fill="#8685d9" class="fill-ea8383"></circle><path d="m365.657 397.657-11.314-11.314L368 372.687V352h16v27.313l-18.343 18.344z" fill="#f9dbdb" class="fill-f9dbdb"></path><path d="M402.148 456H472v-83.18A192.729 192.729 0 0 1 402.148 456Z" fill="#e8c3c3" class="fill-bebebe"></path><path d="M296 488h176a16 16 0 0 0 16-16v-16h-85.852A191.09 191.09 0 0 1 296 488Z" fill="#ffffff" class="fill-a2a2a2"></path><path d="M356.286 419.762a47.995 47.995 0 0 0 63.476-63.476 96.215 96.215 0 0 1-63.476 63.476Z" fill="#032f30" opacity=".15" class="fill-010202"></path><path d="M480 448V312a24.027 24.027 0 0 0-24-24h-8V110.627a23.843 23.843 0 0 0-7.03-16.97L370.345 23.03A23.844 23.844 0 0 0 353.373 16H88a24.027 24.027 0 0 0-24 24v432a24.027 24.027 0 0 0 24 24h384a24.027 24.027 0 0 0 24-24v-24Zm-24-144a8.01 8.01 0 0 1 8 8v136H288V312a8.01 8.01 0 0 1 8-8ZM368 43.314 420.686 96H376a8.01 8.01 0 0 1-8-8ZM120 480H88a8.01 8.01 0 0 1-8-8V40a8.01 8.01 0 0 1 8-8h264v56a24.027 24.027 0 0 0 24 24h56v176H296a24.027 24.027 0 0 0-21.563 13.475L216 253.664l-96 78.545Zm56 0h-40V339.791l80-65.455 56 45.818V448h-16v-80h-80Zm16 0v-96h48v88a23.882 23.882 0 0 0 1.376 8Zm288-8a8.01 8.01 0 0 1-8 8H264a8.01 8.01 0 0 1-8-8v-8h224Z" fill="#000000" class="fill-000000"></path><path d="M376 432a56 56 0 1 0-56-56 56.063 56.063 0 0 0 56 56Zm0-96a40 40 0 1 1-40 40 40.046 40.046 0 0 1 40-40Z" fill="#000000" class="fill-000000"></path><path d="M384 379.313V352h-16v20.687l-13.657 13.656 11.314 11.314L384 379.313zM184 56h144v16H184zM104 144h24v16h-24zM104 192h24v16h-24zM104 240h24v16h-24zM144 96h192v16H144zM144 144h264v16H144zM144 192h264v16H144zM144 240h48v16h-48zM240 240h168v16H240zM104 96h24v16h-24z" fill="#000000" class="fill-000000"></path></g></svg>