<svg viewBox="0 0 32 32" xml:space="preserve" xmlns="http://www.w3.org/2000/svg"><circle cx="16" cy="16" fill="#f2f2f2" r="14.5" class="fill-ffffff"></circle><path d="M30.5 16c0-1.339-.196-2.631-.536-3.862C27.83 6.787 22.612 3 16.5 3 8.492 3 2 9.492 2 17.5c0 1.339.196 2.631.536 3.862C4.67 26.713 9.888 30.5 16 30.5c8.008 0 14.5-6.492 14.5-14.5z" fill="#f9c7ff" class="fill-80d8ff"></path><path d="M20.95 29.614a1.006 1.006 0 0 1-1.347-.946c.005-1.227.01-2.677.01-3.69 0-1.358-.464-2.246-.984-2.696 3.23-.36 6.62-1.591 6.62-7.183 0-1.59-.561-2.889-1.491-3.907.15-.369.647-1.848-.144-3.853 0 0-1.215-.391-3.983 1.492a13.867 13.867 0 0 0-3.63-.49 13.85 13.85 0 0 0-3.63.49C9.601 6.949 8.383 7.34 8.383 7.34c-.788 2.004-.291 3.484-.141 3.853-.928 1.018-1.493 2.317-1.493 3.907 0 5.578 3.385 6.827 6.605 7.194-.415.364-.79 1.006-.921 1.946-.827.373-2.926 1.016-4.221-1.209 0 0-.766-1.397-2.22-1.5 0 0-1.417-.018-.1.885 0 0 .951.448 1.609 2.129 0 0 .851 2.832 4.885 1.952l.011 2.169a1.005 1.005 0 0 1-1.34.952 14.526 14.526 0 0 1-3.949-2.18 14.429 14.429 0 0 0 17.616.124 14.49 14.49 0 0 1-3.774 2.052z" fill="#f2f2f2" class="fill-ffffff"></path><path d="M11.393 30.176a1.47 1.47 0 0 1-.506-.089A14.94 14.94 0 0 1 1.015 15.33a.5.5 0 0 1 .999.043 13.942 13.942 0 0 0 9.214 13.772.485.485 0 0 0 .453-.063.501.501 0 0 0 .217-.417l-.008-1.573c-3.927.561-4.857-2.375-4.867-2.406-.552-1.405-1.342-1.82-1.35-1.824-.342-.229-.996-.676-.81-1.262.167-.528.852-.563 1.136-.572 1.736.122 2.616 1.693 2.652 1.76.956 1.643 2.414 1.446 3.335 1.094.09-.452.239-.863.439-1.216-2.872-.486-6.176-1.973-6.176-7.568 0-1.531.479-2.88 1.424-4.016-.208-.674-.468-2.112.244-3.925a.5.5 0 0 1 .313-.293c.144-.047 1.473-.394 4.23 1.426a14.35 14.35 0 0 1 3.539-.448c1.234.006 2.423.157 3.543.448 2.756-1.82 4.08-1.473 4.226-1.426a.5.5 0 0 1 .312.292c.715 1.813.456 3.251.247 3.927.944 1.133 1.422 2.482 1.422 4.016 0 5.595-3.308 7.078-6.185 7.559.354.623.549 1.426.549 2.32 0 1.013-.005 2.465-.01 3.692a.503.503 0 0 0 .677.475C26.295 27.141 30 21.858 30 16c0-3.863-1.54-7.46-4.335-10.129-2.794-2.667-6.462-4.037-10.336-3.855a.496.496 0 0 1-.523-.476.5.5 0 0 1 .476-.523c4.152-.19 8.08 1.274 11.073 4.131A14.867 14.867 0 0 1 31 16c0 6.277-3.97 11.937-9.878 14.084a1.505 1.505 0 0 1-2.018-1.418c.005-1.226.01-2.676.01-3.688 0-1.459-.567-2.107-.811-2.317a.5.5 0 0 1 .271-.875c3.054-.34 6.176-1.401 6.176-6.686 0-1.38-.458-2.582-1.36-3.569a.5.5 0 0 1-.094-.526c.139-.34.524-1.537-.042-3.198-.423.012-1.503.189-3.34 1.44a.495.495 0 0 1-.416.068 13.516 13.516 0 0 0-3.499-.472 13.242 13.242 0 0 0-3.494.472.493.493 0 0 1-.416-.068c-1.83-1.245-2.91-1.427-3.346-1.438-.563 1.661-.177 2.855-.039 3.196a.5.5 0 0 1-.094.525c-.904.991-1.362 2.192-1.362 3.57 0 5.282 3.115 6.35 6.162 6.697a.499.499 0 0 1 .273.872c-.224.197-.621.672-.756 1.64a.496.496 0 0 1-.29.386c-.75.338-3.316 1.237-4.858-1.413-.011-.019-.525-.921-1.444-1.186.326.218 1.077.852 1.631 2.265.043.133.808 2.409 4.313 1.646a.5.5 0 0 1 .607.485l.011 2.17a1.509 1.509 0 0 1-1.504 1.514z" fill="#000000" class="fill-455a64"></path><path d="M15.737 31C7.474 31 1 24.411 1 16c0-3.629 1.238-7.111 3.485-9.804a.5.5 0 0 1 .768.641C3.155 9.35 2 12.604 2 16c0 7.851 6.034 14 13.737 14C23.602 30 30 23.72 30 16S23.602 2 15.737 2c-2.441 0-4.812.62-6.858 1.792a.501.501 0 0 1-.497-.869C10.579 1.665 13.123 1 15.737 1 24.153 1 31 7.729 31 16s-6.847 15-15.263 15z" fill="#000000" class="fill-455a64"></path><path d="M7.543 4.552c0 .275-.225.5-.5.5a.501.501 0 0 1-.5-.5.5.5 0 0 1 1 0z" fill="#000000" class="fill-455a64"></path></svg>