<svg viewBox="0 0 448 512" xmlns="http://www.w3.org/2000/svg"><path d="M160 32H32C14.33 32 0 46.33 0 64v128c0 17.67 14.33 32 32 32h128c17.67 0 32-14.33 32-32V64c0-17.67-14.3-32-32-32zm-32 128H64V96h64v64zm32 128H32c-17.67 0-32 14.33-32 32v128c0 17.67 14.33 32 32 32h128c17.67 0 32-14.33 32-32V320c0-17.7-14.3-32-32-32zm-32 128H64v-64h64v64zM416 32H288c-17.67 0-32 14.33-32 32v128c0 17.67 14.33 32 32 32h128c17.67 0 32-14.33 32-32V64c0-17.67-14.3-32-32-32zm-32 128h-64V96h64v64zm-32 320h32v-32h-32v32zm64-160h-64v-32h-96v192h64v-96h32v32h96V288h-32v32zm0 160h32v-32h-32v32z" fill="#f2b1f1" class="fill-000000"></path></svg>