<svg viewBox="0 0 64 64" xmlns="http://www.w3.org/2000/svg"><g data-name="29-qr code"><path d="M7 17H1V4a3 3 0 0 1 3-3h13v6H7ZM57 17h6V4a3 3 0 0 0-3-3H47v6h10ZM7 47H1v13a3 3 0 0 0 3 3h13v-6H7ZM57 47h6v13a3 3 0 0 1-3 3H47v-6h10Z" fill="#f8d1ff" class="fill-7bace6"></path><path d="M11 11h14v14H11z" fill="#ffffff" class="fill-a8d7e4"></path><path d="M15 15h6v6h-6z" fill="#f8d1ff" class="fill-7bace6"></path><path d="M11 39h14v14H11z" fill="#ffffff" class="fill-a8d7e4"></path><path d="M15 43h6v6h-6z" fill="#f8d1ff" class="fill-7bace6"></path><path d="M39 11h14v14H39z" fill="#ffffff" class="fill-a8d7e4"></path><path d="M43 15h6v6h-6z" fill="#f8d1ff" class="fill-7bace6"></path><path d="M32 35H11v-6h18V11h6v21a3 3 0 0 1-3 3ZM50 53H29v-6h18V29h6v21a3 3 0 0 1-3 3Z" fill="#ffffff" class="fill-a8d7e4"></path><path d="M39 39h4v4h-4zM39 29h4v4h-4zM29 39h4v4h-4z" fill="#f8d1ff" class="fill-7bace6"></path><path d="M1 18h6a1 1 0 0 0 1-1V8h9a1 1 0 0 0 1-1V1a1 1 0 0 0-1-1H4a4 4 0 0 0-4 4v13a1 1 0 0 0 1 1ZM2 4a2 2 0 0 1 2-2h12v4H7a1 1 0 0 0-1 1v9H2ZM60 0H47a1 1 0 0 0-1 1v6a1 1 0 0 0 1 1h9v9a1 1 0 0 0 1 1h6a1 1 0 0 0 1-1V4a4 4 0 0 0-4-4Zm2 16h-4V7a1 1 0 0 0-1-1h-9V2h12a2 2 0 0 1 2 2ZM17 56H8v-9a1 1 0 0 0-1-1H1a1 1 0 0 0-1 1v13a4 4 0 0 0 4 4h13a1 1 0 0 0 1-1v-6a1 1 0 0 0-1-1Zm-1 6H4a2 2 0 0 1-2-2V48h4v9a1 1 0 0 0 1 1h9ZM63 46h-6a1 1 0 0 0-1 1v9h-9a1 1 0 0 0-1 1v6a1 1 0 0 0 1 1h13a4 4 0 0 0 4-4V47a1 1 0 0 0-1-1Zm-1 14a2 2 0 0 1-2 2H48v-4h9a1 1 0 0 0 1-1v-9h4Z" fill="#270057" class="fill-000000"></path><path d="M10 11v14a1 1 0 0 0 1 1h14a1 1 0 0 0 1-1V11a1 1 0 0 0-1-1H11a1 1 0 0 0-1 1Zm2 1h12v12H12Z" fill="#270057" class="fill-000000"></path><path d="M21 14h-6a1 1 0 0 0-1 1v6a1 1 0 0 0 1 1h6a1 1 0 0 0 1-1v-6a1 1 0 0 0-1-1Zm-1 6h-4v-4h4ZM25 38H11a1 1 0 0 0-1 1v14a1 1 0 0 0 1 1h14a1 1 0 0 0 1-1V39a1 1 0 0 0-1-1Zm-1 14H12V40h12Z" fill="#270057" class="fill-000000"></path><path d="M15 50h6a1 1 0 0 0 1-1v-6a1 1 0 0 0-1-1h-6a1 1 0 0 0-1 1v6a1 1 0 0 0 1 1Zm1-6h4v4h-4ZM39 26h14a1 1 0 0 0 1-1V11a1 1 0 0 0-1-1H39a1 1 0 0 0-1 1v14a1 1 0 0 0 1 1Zm1-14h12v12H40Z" fill="#270057" class="fill-000000"></path><path d="M49 14h-6a1 1 0 0 0-1 1v6a1 1 0 0 0 1 1h6a1 1 0 0 0 1-1v-6a1 1 0 0 0-1-1Zm-1 6h-4v-4h4ZM10 29v6a1 1 0 0 0 1 1h21a4 4 0 0 0 4-4V11a1 1 0 0 0-1-1h-6a1 1 0 0 0-1 1v17H11a1 1 0 0 0-1 1Zm2 1h17a1 1 0 0 0 1-1V12h4v20a2 2 0 0 1-2 2H12ZM54 50V33a1 1 0 0 0-2 0v17a2 2 0 0 1-2 2H30v-4h17a1 1 0 0 0 1-1V30h5a1 1 0 0 0 0-2h-6a1 1 0 0 0-1 1v17H29a1 1 0 0 0-1 1v6a1 1 0 0 0 1 1h21a4 4 0 0 0 4-4Z" fill="#270057" class="fill-000000"></path><path d="M39 44h4a1 1 0 0 0 1-1v-4a1 1 0 0 0-1-1h-4a1 1 0 0 0-1 1v4a1 1 0 0 0 1 1Zm1-4h2v2h-2ZM39 34h4a1 1 0 0 0 1-1v-4a1 1 0 0 0-1-1h-4a1 1 0 0 0-1 1v4a1 1 0 0 0 1 1Zm1-4h2v2h-2ZM29 38a1 1 0 0 0-1 1v4a1 1 0 0 0 1 1h4a1 1 0 0 0 1-1v-4a1 1 0 0 0-1-1Zm3 4h-2v-2h2Z" fill="#270057" class="fill-000000"></path></g></svg>