<svg viewBox="0 0 32 32" xml:space="preserve" xmlns="http://www.w3.org/2000/svg"><path d="M22.249 26.632 16 30.5l-6.248-3.868c-2.349-1.453-4.395-3.59-4.395-7.63L5 6.5l11-5 11 5-.357 12.502c0 4.081-2.046 6.177-4.394 7.63z" fill="#e0e0e0" class="fill-ffffff"></path><path d="m6.496 8.317-.139 10.671c0 4.119 2.222 6.021 4.157 7.219L16 29.912l5.986-3.705c1.935-1.198 4.156-3.1 4.156-7.205l.348-12.185L16 2.049 7.385 6.832c-.484.269-.881.934-.889 1.485z" fill="#f0bdef" class="fill-65f0cd"></path><path d="M16 2.049v27.863l5.986-3.705c1.935-1.198 4.156-3.1 4.156-7.205l.348-12.185L16 2.049z" fill="#dfa8e0" class="fill-1de9b6"></path><path d="M16 31a.512.512 0 0 1-.264-.074l-6.248-3.869c-1.987-1.23-4.631-3.403-4.631-8.055L4.5 6.514a.5.5 0 0 1 .293-.469l11-5a.499.499 0 0 1 .414 0l11 5a.5.5 0 0 1 .293.469l-.357 12.502c0 4.586-2.475 6.707-4.631 8.041l-6.249 3.869A.506.506 0 0 1 16 31zM5.51 6.817l.348 12.171c0 4.119 2.222 6.021 4.157 7.219L16 29.912l5.986-3.705c1.935-1.198 4.156-3.1 4.156-7.205l.348-12.185L16 2.049 5.51 6.817z" fill="#000000" class="fill-455a64"></path><circle cx="16" cy="15" fill="#f5f5f5" r="6.5" class="fill-fff176"></circle><path d="M16 22c-3.859 0-7-3.141-7-7 0-3.86 3.141-7 7-7a7.01 7.01 0 0 1 4.444 1.592.5.5 0 1 1-.635.772A6.007 6.007 0 0 0 16 9c-3.309 0-6 2.691-6 6s2.691 6 6 6a6.006 6.006 0 0 0 5.849-7.349.499.499 0 0 1 .376-.599.495.495 0 0 1 .599.376C22.94 13.94 23 14.47 23 15c0 3.859-3.141 7-7 7z" fill="#000000" class="fill-455a64"></path><path d="M16 18h-.012a.503.503 0 0 1-.373-.18l-2.5-3a.503.503 0 0 1 .064-.705.503.503 0 0 1 .705.064l2.133 2.561 5.114-5.578a.5.5 0 0 1 .736.676l-5.499 6A.499.499 0 0 1 16 18z" fill="#000000" class="fill-455a64"></path></svg>