<svg version="1.1" id="Layer_1" xmlns="http://www.w3.org/2000/svg" xmlns:xlink="http://www.w3.org/1999/xlink" x="0px" y="0px"
	 width="100%" viewBox="0 0 512 512" enable-background="new 0 0 512 512" xml:space="preserve">
<path fill="#000000" opacity="1.000000" stroke="none" 
	d="
M264.000000,513.000000 
	C176.377426,513.000000 88.754860,513.000000 1.066145,513.000000 
	C1.066145,342.333344 1.066145,171.666672 1.066145,1.000000 
	C32.427509,1.000000 63.745094,1.000000 95.496185,1.407312 
	C96.001740,5.545226 94.894089,9.825862 96.335732,12.917895 
	C106.302994,34.295563 116.734642,55.458496 127.165749,76.617134 
	C130.769516,83.927071 134.796341,91.028442 139.024139,98.965134 
	C135.611755,98.205612 133.343216,97.795532 131.127869,97.190643 
	C122.967674,94.962532 114.851768,92.567482 106.666801,90.436470 
	C100.924820,88.941513 97.583130,91.319069 98.163307,97.216217 
	C98.804932,103.738068 99.556412,110.583527 102.088974,116.505951 
	C105.815903,125.221367 111.163132,133.243896 115.805992,141.536285 
	C108.931564,148.795105 100.981819,156.344452 94.012451,164.710510 
	C74.859894,187.701309 59.691235,213.150864 48.546818,240.969910 
	C41.259609,259.160461 49.172806,285.096405 65.373657,296.194519 
	C77.766174,304.683838 91.493614,305.309692 105.538383,302.811157 
	C133.443130,297.846893 160.206619,289.095520 186.032135,277.454559 
	C192.506363,274.536255 198.944916,271.538849 205.520828,268.522308 
	C206.047638,272.469421 206.617966,276.034698 206.986008,279.620697 
	C208.708588,296.403992 209.921005,313.254181 212.170471,329.965393 
	C215.412140,354.047699 219.059082,378.087494 223.148193,402.040405 
	C227.584030,428.024261 232.915237,453.849457 241.858597,478.747803 
	C245.793411,489.702362 249.974930,500.591614 259.102600,508.584198 
	C260.756104,510.032104 262.368591,511.526886 264.000000,513.000000 
z"/>
<path fill="#000000" opacity="1.000000" stroke="none" 
	d="
M102.000000,1.000000 
	C238.949036,1.000000 375.898071,1.000000 512.923584,1.000000 
	C512.923584,171.552200 512.923584,342.104431 512.923584,513.000000 
	C433.644348,513.000000 354.288208,513.000000 274.501099,512.656372 
	C277.692719,509.754395 281.359863,507.256561 284.930145,504.627289 
	C300.006897,493.524200 315.188782,482.557343 330.065430,471.191467 
	C339.754120,463.789307 349.366760,456.198181 358.285095,447.908142 
	C364.303589,442.313690 369.384735,435.599640 374.304840,428.956573 
	C386.862823,412.000916 400.545288,396.904663 420.296265,387.423096 
	C435.053528,380.338715 448.490814,370.291016 454.221405,353.440887 
	C458.638733,340.452209 460.389374,327.130585 459.103363,313.422729 
	C458.717072,309.305237 458.819031,305.596039 462.145813,301.957855 
	C467.999329,295.556274 469.031769,287.463867 467.494537,279.037811 
	C463.451202,256.875122 452.266998,238.977234 435.122375,224.589890 
	C432.378815,222.287506 429.902527,219.666626 427.007172,216.911835 
	C429.306458,215.778625 431.354797,214.809509 433.367157,213.770660 
	C444.972992,207.779297 445.302063,195.425613 439.493256,187.091095 
	C433.502106,178.495010 425.049774,172.829636 416.086884,168.232117 
	C402.495697,161.260468 388.399170,155.277695 374.562500,148.778717 
	C370.007416,146.639236 366.067230,143.764587 364.583710,138.056900 
	C367.741516,138.056900 370.541260,138.078415 373.340515,138.051392 
	C376.752991,138.018463 380.228851,138.337906 383.562408,137.796982 
	C388.632507,136.974258 390.180786,133.634842 387.932831,129.015991 
	C387.076477,127.256447 385.968323,125.468475 384.544220,124.163513 
	C379.535309,119.573669 374.535675,114.935394 369.178497,110.770897 
	C351.158234,96.762520 331.999054,85.132950 308.519928,82.872749 
	C307.597290,82.783928 306.277069,81.128830 306.092072,80.041870 
	C305.205292,74.831261 304.877380,69.522530 303.925446,64.326614 
	C301.365509,50.354065 297.362457,36.797230 288.874939,25.200092 
	C285.955383,21.210897 281.876709,17.185411 277.434631,15.407795 
	C271.174805,12.902747 265.760590,17.144318 262.411957,26.584501 
	C257.927246,39.227386 254.160812,52.124474 250.019974,64.890999 
	C249.665359,65.984283 248.557922,67.850990 248.240784,67.763382 
	C246.837708,67.375824 245.171844,66.707809 244.373352,65.589752 
	C241.772842,61.948521 239.746216,57.889782 237.073029,54.309582 
	C229.676758,44.403748 221.699326,35.077663 209.947098,29.984175 
	C203.671967,27.264502 197.741776,29.774754 196.897583,36.531727 
	C195.999237,43.721962 196.540207,51.084164 196.253021,58.363407 
	C196.167099,60.541378 196.119766,63.414902 194.809433,64.701355 
	C192.330292,67.135345 189.254944,67.200188 186.117111,64.589920 
	C175.548630,55.798344 164.965118,47.003796 154.031662,38.677444 
	C140.987549,28.743721 127.589409,19.274069 114.316826,9.641682 
	C110.258293,6.696256 106.108177,3.877023 102.000000,1.000000 
z"/>
<path fill="#222020" opacity="1.000000" stroke="none" 
	d="
M101.571533,1.000000 
	C106.108177,3.877023 110.258293,6.696256 114.316826,9.641682 
	C127.589409,19.274069 140.987549,28.743721 154.031662,38.677444 
	C164.965118,47.003796 175.548630,55.798344 186.117111,64.589920 
	C189.254944,67.200188 192.330292,67.135345 194.809433,64.701355 
	C196.119766,63.414902 196.167099,60.541378 196.253021,58.363407 
	C196.540207,51.084164 195.999237,43.721962 196.897583,36.531727 
	C197.741776,29.774754 203.671967,27.264502 209.947098,29.984175 
	C221.699326,35.077663 229.676758,44.403748 237.073029,54.309582 
	C239.746216,57.889782 241.772842,61.948521 244.373352,65.589752 
	C245.171844,66.707809 246.837708,67.375824 248.240784,67.763382 
	C248.557922,67.850990 249.665359,65.984283 250.019974,64.890999 
	C254.160812,52.124474 257.927246,39.227386 262.411957,26.584501 
	C265.760590,17.144318 271.174805,12.902747 277.434631,15.407795 
	C281.876709,17.185411 285.955383,21.210897 288.874939,25.200092 
	C297.362457,36.797230 301.365509,50.354065 303.925446,64.326614 
	C304.877380,69.522530 305.205292,74.831261 306.092072,80.041870 
	C306.277069,81.128830 307.597290,82.783928 308.519928,82.872749 
	C331.999054,85.132950 351.158234,96.762520 369.178497,110.770897 
	C374.535675,114.935394 379.535309,119.573669 384.544220,124.163513 
	C385.968323,125.468475 387.076477,127.256447 387.932831,129.015991 
	C390.180786,133.634842 388.632507,136.974258 383.562408,137.796982 
	C380.228851,138.337906 376.752991,138.018463 373.340515,138.051392 
	C370.541260,138.078415 367.741516,138.056900 364.583710,138.056900 
	C366.067230,143.764587 370.007416,146.639236 374.562500,148.778717 
	C388.399170,155.277695 402.495697,161.260468 416.086884,168.232117 
	C425.049774,172.829636 433.502106,178.495010 439.493256,187.091095 
	C445.302063,195.425613 444.972992,207.779297 433.367157,213.770660 
	C431.354797,214.809509 429.306458,215.778625 427.007172,216.911835 
	C429.902527,219.666626 432.378815,222.287506 435.122375,224.589890 
	C452.266998,238.977234 463.451202,256.875122 467.494537,279.037811 
	C469.031769,287.463867 467.999329,295.556274 462.145813,301.957855 
	C458.819031,305.596039 458.717072,309.305237 459.103363,313.422729 
	C460.389374,327.130585 458.638733,340.452209 454.221405,353.440887 
	C448.490814,370.291016 435.053528,380.338715 420.296265,387.423096 
	C400.545288,396.904663 386.862823,412.000916 374.304840,428.956573 
	C369.384735,435.599640 364.303589,442.313690 358.285095,447.908142 
	C349.366760,456.198181 339.754120,463.789307 330.065430,471.191467 
	C315.188782,482.557343 300.006897,493.524200 284.930145,504.627289 
	C281.359863,507.256561 277.692719,509.754395 274.035095,512.656372 
	C270.969391,513.000000 267.938812,513.000000 264.454102,513.000000 
	C262.368591,511.526886 260.756104,510.032104 259.102600,508.584198 
	C249.974930,500.591614 245.793411,489.702362 241.858597,478.747803 
	C232.915237,453.849457 227.584030,428.024261 223.148193,402.040405 
	C219.059082,378.087494 215.412140,354.047699 212.170471,329.965393 
	C209.921005,313.254181 208.708588,296.403992 206.986008,279.620697 
	C206.617966,276.034698 206.047638,272.469421 205.520828,268.522308 
	C198.944916,271.538849 192.506363,274.536255 186.032135,277.454559 
	C160.206619,289.095520 133.443130,297.846893 105.538383,302.811157 
	C91.493614,305.309692 77.766174,304.683838 65.373657,296.194519 
	C49.172806,285.096405 41.259609,259.160461 48.546818,240.969910 
	C59.691235,213.150864 74.859894,187.701309 94.012451,164.710510 
	C100.981819,156.344452 108.931564,148.795105 115.805992,141.536285 
	C111.163132,133.243896 105.815903,125.221367 102.088974,116.505951 
	C99.556412,110.583527 98.804932,103.738068 98.163307,97.216217 
	C97.583130,91.319069 100.924820,88.941513 106.666801,90.436470 
	C114.851768,92.567482 122.967674,94.962532 131.127869,97.190643 
	C133.343216,97.795532 135.611755,98.205612 139.024139,98.965134 
	C134.796341,91.028442 130.769516,83.927071 127.165749,76.617134 
	C116.734642,55.458496 106.302994,34.295563 96.335732,12.917895 
	C94.894089,9.825862 96.001740,5.545226 95.964844,1.407312 
	C97.714355,1.000000 99.428719,1.000000 101.571533,1.000000 
M211.095261,140.165649 
	C211.095261,140.165649 211.138992,140.342804 211.812698,140.322281 
	C212.328735,139.911575 212.844757,139.500870 214.001511,138.945648 
	C219.974899,133.289124 225.948303,127.632607 232.330032,121.769310 
	C232.606293,121.592026 232.763992,121.340424 233.310501,120.701660 
	C233.903580,119.926323 234.496643,119.150978 235.678879,117.998558 
	C237.657196,115.601837 240.824905,113.463310 241.410812,110.764328 
	C244.153061,98.132095 246.184067,85.345459 248.543610,72.199348 
	C230.088455,69.348740 212.009140,59.353745 192.393921,70.336845 
	C196.253448,73.588867 199.699463,76.429642 203.075836,79.350929 
	C209.399582,84.822388 210.220444,89.906723 206.694260,97.559326 
	C200.489563,111.024925 189.667145,117.803444 175.455811,120.326378 
	C158.760971,123.290222 152.198044,120.482346 143.740509,106.315353 
	C142.931595,104.960381 141.298325,103.497292 139.844055,103.241203 
	C135.607162,102.495155 131.266876,102.336258 126.323006,101.562874 
	C121.346405,100.305237 116.369804,99.047600 110.787308,97.297081 
	C108.462440,96.808777 106.137573,96.320480 103.449623,95.755913 
	C103.449623,97.994736 103.260948,99.484749 103.478989,100.912659 
	C105.516846,114.258102 111.230202,125.833206 120.215065,135.896393 
	C144.438705,163.027237 189.682480,156.128906 210.132324,141.151184 
	C210.132324,141.151184 210.067780,141.217636 210.655441,141.084763 
	C210.862854,140.777115 211.070282,140.469467 211.095261,140.165649 
M104.933861,8.307574 
	C104.314346,8.250723 103.694839,8.193871 102.434509,7.805283 
	C101.334160,7.091478 100.233803,6.377673 99.133453,5.663868 
	C98.632332,6.026577 98.131218,6.389287 97.630104,6.751996 
	C101.041382,15.296359 104.452660,23.840721 108.129303,33.049744 
	C109.195061,29.961248 109.791107,27.913322 110.607643,25.957447 
	C111.431793,23.983330 112.474625,22.100510 113.881348,19.622105 
	C114.472855,18.180307 115.064369,16.738508 115.861961,14.794395 
	C112.083679,12.749995 108.574188,10.851039 105.011238,8.989507 
	C105.011238,8.989507 105.046173,8.934421 104.933861,8.307574 
M128.721832,36.449493 
	C133.195679,28.123270 133.196991,28.121481 125.635078,22.556698 
	C123.648476,21.094767 121.650948,19.647676 119.466621,18.053804 
	C118.623581,20.432167 117.869873,22.558519 116.614677,25.189272 
	C109.983673,31.645969 109.013680,38.503208 114.940269,46.025360 
	C116.149147,47.559700 116.697533,49.597019 117.772987,51.258385 
	C119.067619,53.258358 120.600006,55.104420 121.871559,57.765514 
	C125.209084,64.427734 128.546600,71.089951 131.555420,77.096024 
	C133.786636,71.468559 135.817734,66.138878 138.017502,60.879749 
	C139.227417,57.987110 140.721207,55.213215 142.653870,51.923714 
	C144.646057,48.159264 146.638245,44.394810 148.777145,40.353153 
	C144.871124,37.259190 140.777496,34.016617 136.529510,30.651773 
	C134.904800,34.419144 133.424545,37.851524 131.364594,41.747417 
	C129.232498,45.489182 127.100395,49.230942 124.493378,53.294521 
	C124.278831,53.817894 124.064285,54.341267 123.361397,55.202267 
	C122.894173,55.830284 122.426949,56.458302 121.799423,56.232147 
	C123.928589,49.765324 126.057747,43.298500 128.721832,36.449493 
M146.972122,103.851349 
	C149.916718,107.590973 152.861328,111.330605 156.356964,115.627937 
	C159.406998,116.144440 162.457047,116.660942 165.025574,117.095901 
	C170.971817,100.602463 176.676895,84.777901 182.516479,68.580284 
	C178.419235,65.123932 174.019165,61.412117 170.045502,58.060013 
	C167.216660,64.207146 164.482498,70.148575 161.205170,76.398933 
	C159.006027,80.405853 156.824677,84.422668 154.602722,88.416893 
	C152.400162,92.376274 150.156662,96.312874 147.829956,99.440575 
	C150.917892,90.200356 150.994675,79.819870 158.752609,71.778831 
	C161.350113,66.290115 163.947632,60.801399 166.608170,55.179485 
	C161.268845,50.786972 156.434357,46.809769 151.460373,42.717819 
	C149.434265,47.629875 147.551971,52.193272 145.181320,57.228523 
	C142.575821,61.452385 139.539673,65.480118 137.498947,69.961182 
	C135.818420,73.651360 133.426056,78.644043 134.668793,81.717010 
	C137.723877,89.271454 142.692368,96.052101 146.972122,103.851349 
M302.509796,99.532104 
	C298.957092,108.896355 293.250214,116.642899 285.844208,123.432564 
	C273.348694,134.888092 267.265808,148.427704 271.945587,165.942902 
	C276.133026,181.615479 286.241333,191.319916 300.723053,196.633286 
	C311.925812,200.743622 323.593781,203.594818 335.076904,206.930176 
	C354.189331,212.481537 366.423584,231.520096 362.255066,250.902863 
	C360.426514,259.405457 356.907379,267.641174 353.397797,275.666595 
	C344.470795,296.080170 334.931549,316.249237 329.631470,338.021088 
	C326.739136,349.902252 324.015747,362.262573 329.297974,373.816040 
	C334.959320,386.198792 336.936279,399.178558 339.138672,412.290375 
	C340.787109,422.104279 342.411682,431.989075 345.123993,441.536255 
	C347.287750,449.152466 351.056152,449.579590 357.545319,443.922638 
	C357.735077,443.625519 357.924866,443.328369 358.557709,442.871948 
	C358.834839,442.680328 358.990234,442.416901 359.649963,441.818207 
	C364.647064,435.373779 369.760101,429.015381 374.618225,422.467834 
	C386.373688,406.624146 399.674255,392.633301 418.224487,384.601624 
	C420.949371,383.421844 423.404358,381.600616 425.941315,380.007874 
	C441.641144,370.151337 452.847717,357.067230 454.630188,337.894196 
	C455.567719,327.809845 455.430817,317.627625 455.880981,307.494110 
	C455.958069,305.758514 455.952179,303.430573 456.995575,302.419312 
	C465.650757,294.030334 465.080566,284.279694 462.373138,273.679565 
	C456.641296,251.238235 442.730103,234.773911 425.061188,220.855103 
	C423.209564,219.396484 421.567932,217.671280 419.416748,215.690231 
	C423.950714,213.693207 427.736877,212.395493 431.153412,210.448990 
	C440.186523,205.302521 441.710114,197.402924 435.379150,189.113968 
	C433.673645,186.881042 431.791046,184.566498 429.490265,183.044525 
	C421.604492,177.828064 413.812195,172.318222 405.394104,168.097153 
	C394.859863,162.814987 383.591858,159.010605 372.950592,153.920334 
	C368.750610,151.911285 364.888031,148.587875 361.816284,145.044296 
	C359.783630,142.699387 359.430786,138.898346 358.325897,135.749207 
	C361.504425,134.769592 364.629181,133.269394 367.874268,132.934280 
	C372.562897,132.450089 377.338684,132.810379 382.077301,132.810379 
	C382.292114,132.084030 382.506958,131.357697 382.721771,130.631348 
	C360.322205,110.455048 336.971344,91.917564 305.433380,86.776268 
	C304.537292,91.221870 303.753998,95.107956 302.509796,99.532104 
M271.203400,22.101494 
	C268.408081,27.443867 264.723755,32.513515 262.985382,38.180130 
	C257.917328,54.700737 253.627029,71.459938 249.000763,88.927719 
	C247.653580,96.288628 246.352798,103.658600 244.918243,111.002441 
	C244.646118,112.395447 244.139175,113.942581 243.235733,114.978195 
	C238.969513,119.868561 234.490860,124.572662 230.155258,129.403595 
	C212.950958,148.573303 191.288925,158.016129 165.732697,158.716904 
	C148.778854,159.181793 133.569107,154.276840 120.638885,142.757324 
	C99.148766,162.888626 81.870316,185.844208 67.986526,211.969604 
	C87.171104,216.676453 104.889809,223.596909 119.693451,236.422455 
	C134.952393,249.642426 143.390839,266.514038 145.571167,287.860626 
	C166.930557,279.492340 187.661087,271.370422 208.778595,263.096863 
	C209.130417,264.919067 209.525269,266.508728 209.736023,268.122437 
	C214.498795,304.591522 218.740158,341.137665 224.139435,377.511963 
	C228.828339,409.100708 235.252686,440.404144 246.041672,470.599243 
	C249.962433,481.572266 254.304535,492.438477 262.579895,501.056427 
	C267.536011,506.217651 269.371613,506.689911 274.987152,502.618896 
	C298.829254,485.334473 322.485138,467.793213 345.255463,451.047089 
	C342.844910,444.858398 340.507019,440.073761 339.141876,435.026062 
	C337.628418,429.429932 336.986328,423.596497 335.995392,417.861084 
	C333.707550,404.619629 332.958588,390.994049 326.856781,378.676422 
	C322.952026,370.793884 321.233185,362.368866 322.749817,353.948090 
	C325.067932,341.077332 327.468903,328.017670 331.881897,315.776184 
	C338.349030,297.836700 346.103394,280.302826 354.255280,263.042938 
	C365.910583,238.365524 353.032135,214.457901 328.662811,209.680756 
	C315.948578,207.188385 303.466675,202.272675 291.628601,196.824570 
	C271.300537,187.469223 264.747009,164.475449 266.939667,148.994598 
	C268.646393,136.944260 275.519165,127.887321 284.487946,120.267868 
	C292.726257,113.269035 299.276917,104.989799 300.923218,94.222931 
	C304.799866,68.869820 298.383209,45.770905 283.769775,24.900723 
	C282.215637,22.681187 279.732758,20.900051 277.325012,19.549831 
	C274.921509,18.201971 272.406799,18.370916 271.203400,22.101494 
M91.786232,223.653366 
	C84.544487,221.235306 77.300430,218.824127 70.062202,216.395584 
	C67.363495,215.490112 65.462044,215.775330 64.170441,218.857758 
	C60.832317,226.824142 56.869324,234.538101 53.736801,242.579178 
	C48.001507,257.301392 53.076958,277.396118 64.591515,288.177795 
	C66.974510,290.409088 69.070465,290.891174 71.512833,288.874268 
	C76.751450,284.548279 82.383850,280.560272 86.959229,275.606537 
	C92.200432,269.931915 96.470764,263.360565 101.491768,256.745514 
	C113.602562,267.337616 112.162956,281.468353 112.209610,295.790558 
	C122.324455,293.313965 132.108627,290.918365 143.032272,288.243744 
	C140.726593,280.203735 139.232346,272.497009 136.333969,265.360535 
	C128.068634,245.009369 111.942520,232.634430 91.786232,223.653366 
M184.278732,112.953911 
	C193.404800,109.695213 198.925491,102.758499 202.269669,94.167862 
	C203.243576,91.666092 203.087250,87.271286 201.495331,85.499451 
	C196.937729,80.426674 191.377762,76.254463 186.661774,72.122307 
	C180.271790,87.306618 174.087234,102.002785 167.600372,117.417320 
	C173.059204,115.961426 178.298584,114.564072 184.278732,112.953911 
M98.999863,297.759857 
	C109.456360,295.925232 109.470108,295.924896 109.215767,285.307159 
	C109.160133,282.984497 109.202705,280.622742 108.793434,278.352295 
	C107.698334,272.277191 106.800903,266.052673 101.477982,261.340851 
	C93.456047,274.008514 84.467651,285.132874 71.153145,292.768768 
	C79.936111,298.178131 88.914230,298.523987 98.999863,297.759857 
M224.222107,46.277222 
	C218.889526,42.402721 213.832825,38.041149 208.134003,34.813232 
	C203.844910,32.383808 201.325211,33.874176 201.017792,38.809464 
	C200.517319,46.843700 200.882736,54.931873 200.882736,63.557362 
	C214.527023,60.331326 227.069855,64.389862 239.738297,67.057091 
	C239.987762,66.670593 240.237244,66.284088 240.486710,65.897583 
	C235.232819,59.524151 229.978912,53.150719 224.222107,46.277222 
z"/>
<path fill="#E0EEFA" opacity="1.000000" stroke="none" 
	d="
M271.877350,22.021433 
	C272.406799,18.370916 274.921509,18.201971 277.325012,19.549831 
	C279.732758,20.900051 282.215637,22.681187 283.769775,24.900723 
	C298.383209,45.770905 304.799866,68.869820 300.923218,94.222931 
	C299.276917,104.989799 292.726257,113.269035 284.487946,120.267868 
	C275.519165,127.887321 268.646393,136.944260 266.939667,148.994598 
	C264.747009,164.475449 271.300537,187.469223 291.628601,196.824570 
	C303.466675,202.272675 315.948578,207.188385 328.662811,209.680756 
	C353.032135,214.457901 365.910583,238.365524 354.255280,263.042938 
	C346.103394,280.302826 338.349030,297.836700 331.881897,315.776184 
	C327.468903,328.017670 325.067932,341.077332 322.749817,353.948090 
	C321.233185,362.368866 322.952026,370.793884 326.856781,378.676422 
	C332.958588,390.994049 333.707550,404.619629 335.995392,417.861084 
	C336.986328,423.596497 337.628418,429.429932 339.141876,435.026062 
	C340.507019,440.073761 342.844910,444.858398 345.255463,451.047089 
	C322.485138,467.793213 298.829254,485.334473 274.987152,502.618896 
	C269.371613,506.689911 267.536011,506.217651 262.579895,501.056427 
	C254.304535,492.438477 249.962433,481.572266 246.041672,470.599243 
	C235.252686,440.404144 228.828339,409.100708 224.139435,377.511963 
	C218.740158,341.137665 214.498795,304.591522 209.736023,268.122437 
	C209.525269,266.508728 209.130417,264.919067 208.778595,263.096863 
	C187.661087,271.370422 166.930557,279.492340 145.571167,287.860626 
	C143.390839,266.514038 134.952393,249.642426 119.693451,236.422455 
	C104.889809,223.596909 87.171104,216.676453 67.986526,211.969604 
	C81.870316,185.844208 99.148766,162.888626 120.638885,142.757324 
	C133.569107,154.276840 148.778854,159.181793 165.732697,158.716904 
	C191.288925,158.016129 212.950958,148.573303 230.155258,129.403595 
	C234.490860,124.572662 238.969513,119.868561 243.235733,114.978195 
	C244.139175,113.942581 244.646118,112.395447 244.918243,111.002441 
	C246.352798,103.658600 247.653580,96.288628 249.391693,88.638000 
	C251.844131,88.939575 253.905655,89.530876 255.997345,90.560364 
	C255.810211,95.153770 255.273254,99.323975 255.467117,103.459930 
	C255.654236,107.451553 254.595963,112.706009 259.361633,114.458374 
	C264.239990,116.252174 268.419189,112.745178 270.652466,108.968277 
	C275.429810,100.888878 280.077881,92.568886 283.390900,83.821716 
	C290.419189,65.265404 288.354980,46.897644 279.981110,29.122074 
	C279.122711,27.299927 277.936707,25.632116 276.690247,23.535236 
	C275.130737,25.404039 274.105957,26.632048 272.904175,27.516985 
	C272.443909,25.456421 272.160645,23.738926 271.877350,22.021433 
M324.276520,448.858734 
	C326.705139,446.153900 329.384796,443.625000 331.456116,440.669678 
	C332.485718,439.200653 332.906158,436.902130 332.735046,435.059326 
	C331.618927,423.037384 330.642914,410.980621 328.846466,399.051910 
	C327.777802,391.955597 326.204987,384.645905 323.189117,378.215210 
	C320.291107,372.035858 318.406891,365.994385 317.959137,359.268036 
	C316.753601,341.157898 321.210114,324.013306 326.510651,306.988800 
	C332.830780,286.689575 339.400818,266.463287 345.359863,246.058624 
	C348.142242,236.531342 342.939880,227.257874 333.632080,223.395203 
	C321.665131,218.428970 309.540955,213.832230 297.656372,208.679825 
	C286.631348,203.900024 275.952911,198.300735 268.789581,188.152298 
	C265.321411,183.238831 262.686066,177.737457 259.679291,172.512070 
	C253.161423,177.172943 251.242935,185.308197 256.221252,194.072098 
	C262.106293,204.432129 269.041962,214.202744 275.659393,224.137466 
	C283.832458,236.407700 292.375061,248.438202 300.302765,260.862732 
	C304.213684,266.992065 304.254639,273.710022 300.418427,280.273712 
	C299.006470,282.689575 297.990112,285.392456 297.145477,288.075287 
	C290.200500,310.134857 289.194061,333.061737 288.184937,355.858856 
	C287.309082,375.644836 287.625916,395.510925 288.187439,415.319733 
	C288.409912,423.168579 289.970978,431.182648 292.241943,438.724182 
	C295.946198,451.025574 301.563385,454.981262 312.830353,453.808777 
	C316.551270,453.421539 320.039642,450.799713 324.276520,448.858734 
M245.223145,286.304108 
	C242.068481,276.725555 238.942963,267.126556 228.641220,261.977051 
	C228.044250,263.602570 227.339600,264.670929 227.298248,265.764374 
	C226.846817,277.699341 225.450455,289.719879 226.371689,301.556763 
	C227.716263,318.832977 230.535858,336.009583 233.109482,353.171234 
	C236.566757,376.225281 240.084946,399.278656 244.165756,422.227631 
	C246.712540,436.549835 249.277359,451.027710 257.744812,463.483887 
	C262.270935,470.142120 265.577454,477.945984 274.468750,480.312531 
	C279.157837,481.560669 282.625702,479.618652 282.906219,474.858307 
	C283.189514,470.050964 283.614197,465.079803 282.749237,460.407715 
	C279.526611,443.000763 275.936859,425.657715 272.226990,408.346008 
	C267.575867,386.642120 262.659058,364.995270 257.879089,343.318878 
	C253.743317,324.563751 249.638519,305.801788 245.223145,286.304108 
M138.514481,165.270798 
	C136.598434,164.162308 134.755219,162.893143 132.748856,161.983917 
	C129.920242,160.702087 126.563347,160.234650 124.156960,158.444763 
	C118.971146,154.587555 117.097389,154.620255 113.077896,159.825745 
	C107.604973,166.913513 101.921509,173.841461 96.552559,181.005951 
	C91.616974,187.592148 86.978294,194.400848 81.835114,201.637314 
	C95.888817,204.500351 106.267563,212.213913 116.260963,220.577515 
	C122.492012,225.792328 128.618622,231.132355 134.878616,236.311630 
	C135.785156,237.061676 137.763397,237.910736 138.221451,237.518356 
	C139.176132,236.700485 139.885818,235.094772 139.921478,233.791565 
	C140.090164,227.629547 139.998123,221.460388 139.998062,215.293762 
	C139.997925,201.808258 141.320465,200.129990 154.419434,196.943634 
	C154.634277,196.891373 154.783493,196.569290 155.150864,196.168579 
	C153.763992,195.435226 152.410065,194.830353 151.170502,194.044968 
	C145.174973,190.246277 139.266602,186.020981 137.949844,178.602997 
	C137.235977,174.581421 138.467880,170.214462 138.514481,165.270798 
M200.920593,250.450241 
	C203.332794,247.703430 205.921051,245.090134 208.124268,242.184830 
	C214.767670,233.424500 214.647263,224.068436 207.998596,218.400742 
	C202.471832,213.689377 191.792419,213.456055 185.167618,218.669739 
	C182.172470,221.026932 180.225052,220.680923 177.275238,219.149353 
	C170.949478,215.865021 164.435944,216.091125 158.112961,219.365616 
	C152.627335,222.206482 150.521698,227.515747 151.611130,233.588287 
	C152.871643,240.614426 157.567993,245.326508 162.757172,248.987854 
	C169.333298,253.627762 176.841110,256.947205 183.947128,260.836121 
	C189.307373,257.646271 194.667969,254.456985 200.026001,251.263412 
	C200.166885,251.179413 200.280029,251.048889 200.920593,250.450241 
M162.805466,172.658539 
	C160.203842,169.706192 157.175797,169.081375 154.030869,171.555740 
	C151.043701,173.906021 151.397156,176.993896 152.798157,180.135132 
	C155.707108,186.657379 160.837784,190.612015 167.526978,192.548325 
	C183.498764,197.171616 199.661102,183.810379 196.591125,168.613831 
	C195.583267,163.624908 192.820587,161.080902 188.996307,162.023560 
	C184.580704,163.112000 183.463272,166.248734 184.330536,170.457962 
	C185.240280,174.873459 183.037308,177.841095 179.389740,179.810623 
	C173.127411,183.192017 166.807678,180.601578 162.805466,172.658539 
M280.558441,116.083199 
	C295.651489,98.159294 302.436707,70.485733 294.706543,58.925781 
	C293.193268,65.567108 291.925262,72.401207 290.058502,79.067635 
	C285.803101,94.264275 276.935394,106.919739 267.372070,119.161507 
	C262.064270,125.955833 260.811096,133.775345 261.203644,142.562500 
	C267.834595,133.516266 274.001709,125.102837 280.558441,116.083199 
M294.566437,55.515831 
	C294.566437,55.515831 294.479340,55.564228 294.566437,55.515831 
z"/>
<path fill="#FB6B9F" opacity="1.000000" stroke="none" 
	d="
M357.029053,444.095612 
	C351.056152,449.579590 347.287750,449.152466 345.123993,441.536255 
	C342.411682,431.989075 340.787109,422.104279 339.138672,412.290375 
	C336.936279,399.178558 334.959320,386.198792 329.297974,373.816040 
	C324.015747,362.262573 326.739136,349.902252 329.631470,338.021088 
	C334.931549,316.249237 344.470795,296.080170 353.397797,275.666595 
	C356.907379,267.641174 360.426514,259.405457 362.255066,250.902863 
	C366.423584,231.520096 354.189331,212.481537 335.076904,206.930176 
	C323.593781,203.594818 311.925812,200.743622 300.723053,196.633286 
	C286.241333,191.319916 276.133026,181.615479 271.945587,165.942902 
	C267.265808,148.427704 273.348694,134.888092 285.844208,123.432564 
	C293.250214,116.642899 298.957092,108.896355 303.114929,99.309685 
	C308.174805,100.908707 312.791016,102.420746 317.039551,104.637459 
	C321.402588,106.913895 325.283783,110.174500 325.059357,115.730118 
	C324.835876,121.261139 323.971954,126.765350 323.417114,132.284164 
	C322.732361,139.095169 321.576355,146.112534 327.866913,151.176300 
	C330.559723,153.343948 333.513275,155.376938 336.661743,156.755096 
	C347.920959,161.683517 359.462891,165.983749 370.614685,171.134766 
	C381.427673,176.129288 392.057953,181.589935 402.378632,187.523941 
	C404.622314,188.813995 406.578766,193.204224 406.173492,195.773117 
	C405.763977,198.368698 402.577637,200.973190 400.001465,202.632446 
	C398.087494,203.865189 395.105621,203.295212 392.778992,204.068512 
	C389.834869,205.047043 385.384979,205.993820 384.688751,208.020645 
	C383.934296,210.216965 386.052429,214.346649 388.132843,216.405334 
	C396.863068,225.044418 406.374054,232.903778 414.974304,241.662201 
	C423.434357,250.277786 429.895538,260.346588 432.621216,272.398468 
	C434.097076,278.924072 431.756714,284.153961 425.922974,287.551392 
	C424.488281,288.386902 423.076233,289.265869 421.692230,290.182922 
	C418.379791,292.377777 416.134155,295.493469 417.112335,299.425964 
	C418.496887,304.992188 420.019318,310.701447 422.650726,315.739563 
	C426.837189,323.755035 427.950409,331.258087 421.377777,338.209167 
	C416.624420,343.236237 411.289612,347.720428 406.138580,352.362976 
	C397.473572,360.172729 391.148193,369.772949 386.104614,380.075073 
	C379.385254,393.800049 373.371674,407.874573 367.217285,421.870361 
	C364.292297,428.522217 361.743286,435.339386 359.023926,442.081696 
	C358.990234,442.416901 358.834839,442.680328 358.087585,443.049866 
	C357.421326,443.517059 357.225189,443.806335 357.029053,444.095612 
M369.930145,255.887161 
	C368.505585,262.568176 367.081055,269.249176 365.012054,276.141388 
	C359.284271,287.559387 353.465607,298.932861 347.849670,310.405609 
	C339.034790,328.413483 333.595306,346.924438 340.030151,367.069885 
	C341.723755,372.372009 343.258270,377.724976 344.865845,383.054596 
	C346.219391,378.442352 346.476532,374.139435 347.027924,369.874573 
	C348.369171,359.499725 349.063477,348.584412 355.724457,340.157410 
	C360.548126,334.054840 367.135284,329.187653 373.459625,324.471710 
	C380.639557,319.117767 384.184509,312.214905 383.912384,303.560394 
	C383.568665,292.627228 382.810089,281.695740 381.837036,270.798645 
	C381.383026,265.714539 380.461456,260.566071 378.904572,255.718887 
	C377.570221,251.564484 375.028564,247.797867 373.020844,243.859756 
	C372.333313,244.077713 371.645782,244.295654 370.958252,244.513611 
	C370.683075,248.068848 370.407928,251.624084 369.930145,255.887161 
M295.603333,188.065735 
	C302.533630,190.266251 309.416046,192.634796 316.405334,194.628448 
	C327.241882,197.719498 338.127869,200.645676 349.038239,203.466293 
	C356.079132,205.286545 358.406586,202.842575 356.752075,195.735046 
	C354.948669,187.987823 344.691956,178.768005 336.349457,178.083954 
	C327.934326,177.393951 319.468964,177.231491 311.021088,177.058228 
	C305.942444,176.954086 302.701447,174.820282 301.993073,169.712341 
	C301.449341,165.792038 301.311523,161.815170 301.001526,157.862808 
	C300.400818,150.203857 299.671143,142.387268 294.381531,136.427292 
	C292.342499,134.129822 288.468842,132.884949 285.273193,132.511551 
	C284.199371,132.386063 282.336090,136.317673 281.380188,138.621689 
	C280.375671,141.042999 279.989502,143.727615 279.396393,146.311691 
	C276.061188,160.842773 283.105499,179.456406 295.603333,188.065735 
z"/>
<path fill="#E9538F" opacity="1.000000" stroke="none" 
	d="
M359.336945,441.949951 
	C361.743286,435.339386 364.292297,428.522217 367.217285,421.870361 
	C373.371674,407.874573 379.385254,393.800049 386.104614,380.075073 
	C391.148193,369.772949 397.473572,360.172729 406.138580,352.362976 
	C411.289612,347.720428 416.624420,343.236237 421.377777,338.209167 
	C427.950409,331.258087 426.837189,323.755035 422.650726,315.739563 
	C420.019318,310.701447 418.496887,304.992188 417.112335,299.425964 
	C416.134155,295.493469 418.379791,292.377777 421.692230,290.182922 
	C423.076233,289.265869 424.488281,288.386902 425.922974,287.551392 
	C431.756714,284.153961 434.097076,278.924072 432.621216,272.398468 
	C429.895538,260.346588 423.434357,250.277786 414.974304,241.662201 
	C406.374054,232.903778 396.863068,225.044418 388.132843,216.405334 
	C386.052429,214.346649 383.934296,210.216965 384.688751,208.020645 
	C385.384979,205.993820 389.834869,205.047043 392.778992,204.068512 
	C395.105621,203.295212 398.087494,203.865189 400.001465,202.632446 
	C402.577637,200.973190 405.763977,198.368698 406.173492,195.773117 
	C406.578766,193.204224 404.622314,188.813995 402.378632,187.523941 
	C392.057953,181.589935 381.427673,176.129288 370.614685,171.134766 
	C359.462891,165.983749 347.920959,161.683517 336.661743,156.755096 
	C333.513275,155.376938 330.559723,153.343948 327.866913,151.176300 
	C321.576355,146.112534 322.732361,139.095169 323.417114,132.284164 
	C323.971954,126.765350 324.835876,121.261139 325.059357,115.730118 
	C325.283783,110.174500 321.402588,106.913895 317.039551,104.637459 
	C312.791016,102.420746 308.174805,100.908707 303.345337,99.040649 
	C303.753998,95.107956 304.537292,91.221870 305.433380,86.776268 
	C336.971344,91.917564 360.322205,110.455048 382.721771,130.631348 
	C382.506958,131.357697 382.292114,132.084030 382.077301,132.810379 
	C377.338684,132.810379 372.562897,132.450089 367.874268,132.934280 
	C364.629181,133.269394 361.504425,134.769592 358.325928,135.749207 
	C359.430786,138.898346 359.783630,142.699387 361.816284,145.044296 
	C364.888031,148.587875 368.750610,151.911285 372.950592,153.920334 
	C383.591858,159.010605 394.859863,162.814987 405.394104,168.097153 
	C413.812195,172.318222 421.604492,177.828064 429.490265,183.044525 
	C431.791046,184.566498 433.673645,186.881042 435.379150,189.113968 
	C441.710114,197.402924 440.186523,205.302521 431.153412,210.448990 
	C427.736877,212.395493 423.950714,213.693207 419.416748,215.690231 
	C421.567932,217.671280 423.209564,219.396484 425.061188,220.855103 
	C442.730103,234.773911 456.641296,251.238235 462.373138,273.679565 
	C465.080566,284.279694 465.650757,294.030334 456.995575,302.419312 
	C455.952179,303.430573 455.958069,305.758514 455.880981,307.494110 
	C455.430817,317.627625 455.567719,327.809845 454.630188,337.894196 
	C452.847717,357.067230 441.641144,370.151337 425.941315,380.007874 
	C423.404358,381.600616 420.949371,383.421844 418.224487,384.601624 
	C399.674255,392.633301 386.373688,406.624146 374.618225,422.467834 
	C369.760101,429.015381 364.647064,435.373779 359.336945,441.949951 
z"/>
<path fill="#F86A9D" opacity="1.000000" stroke="none" 
	d="
M210.194275,141.220032 
	C189.682480,156.128906 144.438705,163.027237 120.215065,135.896393 
	C111.230202,125.833206 105.516846,114.258102 103.478989,100.912659 
	C103.260948,99.484749 103.449623,97.994736 103.449623,95.755913 
	C106.137573,96.320480 108.462440,96.808777 110.665466,97.619507 
	C109.382408,98.888885 107.462753,99.655678 107.187782,100.813164 
	C105.801125,106.650345 110.458481,121.090820 118.247864,123.226196 
	C124.703018,134.835815 133.552139,142.840927 146.562363,145.820892 
	C146.601715,143.639099 146.337708,141.676971 145.220413,140.600189 
	C142.632141,138.105743 139.538055,136.146301 136.819550,133.774490 
	C132.805923,130.272736 128.940460,126.601151 125.227638,122.845505 
	C125.059814,122.098450 124.676262,121.507774 124.224510,120.557014 
	C124.118729,119.466095 124.081146,118.735268 124.344719,117.847321 
	C127.331474,115.679291 130.042755,113.701454 132.692535,111.644402 
	C134.150024,110.512924 135.504044,109.248161 136.904709,108.043488 
	C135.478943,106.938545 134.138260,105.693001 132.605209,104.765373 
	C130.813446,103.681190 128.853882,102.874321 126.967125,101.947144 
	C131.266876,102.336258 135.607162,102.495155 139.844055,103.241203 
	C141.298325,103.497292 142.931595,104.960381 143.740509,106.315353 
	C152.198044,120.482346 158.760971,123.290222 175.455811,120.326378 
	C189.667145,117.803444 200.489563,111.024925 206.694260,97.559326 
	C210.220444,89.906723 209.399582,84.822388 203.075836,79.350929 
	C199.699463,76.429642 196.253448,73.588867 192.393921,70.336845 
	C212.009140,59.353745 230.088455,69.348740 248.543610,72.199348 
	C246.184067,85.345459 244.153061,98.132095 241.410812,110.764328 
	C240.824905,113.463310 237.657196,115.601837 235.361053,117.782013 
	C235.984909,115.301872 237.388336,113.116417 237.786865,110.760941 
	C239.359207,101.467567 240.823059,92.144920 241.912857,82.784889 
	C242.573227,77.113106 240.782562,74.159569 234.979813,73.011162 
	C225.612747,71.157341 216.072495,70.075752 206.558441,69.151054 
	C204.564911,68.957298 202.367874,70.857361 200.264618,71.792572 
	C201.485870,73.633148 202.503464,75.658066 203.969238,77.277306 
	C207.397461,81.064491 211.322098,84.437210 214.450928,88.442406 
	C215.615189,89.932793 216.166733,93.810333 215.206848,94.729836 
	C210.380920,99.352745 210.754028,105.621658 208.909576,111.182259 
	C207.776413,114.598503 206.346558,118.050034 204.358948,121.023911 
	C198.557373,129.704361 189.624954,134.736115 180.966873,139.957184 
	C175.417618,143.303543 169.612335,146.225342 162.816345,149.942062 
	C175.597580,150.290863 186.703506,148.800186 197.534714,145.292938 
	C201.751999,143.927353 205.974274,142.577209 210.194275,141.220032 
z"/>
<path fill="#E2D5C3" opacity="1.000000" stroke="none" 
	d="
M92.141525,223.793549 
	C111.942520,232.634430 128.068634,245.009369 136.333969,265.360535 
	C139.232346,272.497009 140.726593,280.203735 143.032272,288.243744 
	C132.108627,290.918365 122.324455,293.313965 112.209610,295.790558 
	C112.162956,281.468353 113.602562,267.337616 101.491768,256.745514 
	C96.470764,263.360565 92.200432,269.931915 86.959229,275.606537 
	C82.383850,280.560272 76.751450,284.548279 71.512833,288.874268 
	C69.070465,290.891174 66.974510,290.409088 64.591515,288.177795 
	C53.076958,277.396118 48.001507,257.301392 53.736801,242.579178 
	C56.869324,234.538101 60.832317,226.824142 64.170441,218.857758 
	C65.462044,215.775330 67.363495,215.490112 70.062202,216.395584 
	C77.300430,218.824127 84.544487,221.235306 92.141525,223.793549 
M72.064362,243.344009 
	C72.082947,242.923157 72.101532,242.502289 72.806091,241.897446 
	C75.190491,236.541138 77.574898,231.184830 80.132805,225.438751 
	C77.367104,224.299652 75.137390,223.234894 72.811592,222.457642 
	C69.315994,221.289444 66.471352,222.234924 65.114738,225.826752 
	C61.840950,234.494568 58.057434,243.045410 55.713825,251.967636 
	C53.391140,260.810272 56.082756,269.357605 60.771576,277.104065 
	C62.487473,279.938934 64.980530,280.973511 67.670799,278.159363 
	C72.302704,273.314178 76.831238,268.370209 81.699394,263.150024 
	C75.340736,257.662415 72.804993,251.234497 72.064362,243.344009 
M86.408440,231.842194 
	C82.903038,236.264740 82.657654,239.992035 85.649002,243.377441 
	C88.772408,246.912277 94.298378,247.612625 98.305359,244.981461 
	C101.904564,242.618073 103.217285,238.282501 101.459152,234.565384 
	C99.503418,230.430496 94.476433,228.463989 89.610580,230.005035 
	C88.683144,230.298767 87.850388,230.891449 86.408440,231.842194 
z"/>
<path fill="#EA5390" opacity="1.000000" stroke="none" 
	d="
M210.163300,141.185608 
	C205.974274,142.577209 201.751999,143.927353 197.534714,145.292938 
	C186.703506,148.800186 175.597580,150.290863 162.816345,149.942062 
	C169.612335,146.225342 175.417618,143.303543 180.966873,139.957184 
	C189.624954,134.736115 198.557373,129.704361 204.358948,121.023911 
	C206.346558,118.050034 207.776413,114.598503 208.909576,111.182259 
	C210.754028,105.621658 210.380920,99.352745 215.206848,94.729836 
	C216.166733,93.810333 215.615189,89.932793 214.450928,88.442406 
	C211.322098,84.437210 207.397461,81.064491 203.969238,77.277306 
	C202.503464,75.658066 201.485870,73.633148 200.264618,71.792572 
	C202.367874,70.857361 204.564911,68.957298 206.558441,69.151054 
	C216.072495,70.075752 225.612747,71.157341 234.979813,73.011162 
	C240.782562,74.159569 242.573227,77.113106 241.912857,82.784889 
	C240.823059,92.144920 239.359207,101.467567 237.786865,110.760941 
	C237.388336,113.116417 235.984909,115.301872 235.066483,117.970551 
	C234.496643,119.150978 233.903580,119.926323 232.855286,120.878838 
	C232.240616,121.362709 232.081161,121.669403 231.921692,121.976089 
	C225.948303,127.632607 219.974899,133.289124 213.327637,139.027298 
	C212.148849,139.520233 211.643921,139.931519 211.139008,140.342804 
	C211.138992,140.342804 211.095261,140.165649 210.908447,140.237579 
	C210.503677,140.612213 210.285721,140.914932 210.067780,141.217636 
	C210.067780,141.217636 210.132324,141.151184 210.163300,141.185608 
z"/>
<path fill="#E3E3E3" opacity="1.000000" stroke="none" 
	d="
M183.908340,113.060318 
	C178.298584,114.564072 173.059204,115.961426 167.600372,117.417320 
	C174.087234,102.002785 180.271790,87.306618 186.661774,72.122307 
	C191.377762,76.254463 196.937729,80.426674 201.495331,85.499451 
	C203.087250,87.271286 203.243576,91.666092 202.269669,94.167862 
	C198.925491,102.758499 193.404800,109.695213 183.908340,113.060318 
z"/>
<path fill="#F86A9D" opacity="1.000000" stroke="none" 
	d="
M98.543190,297.806183 
	C88.914230,298.523987 79.936111,298.178131 71.153145,292.768768 
	C84.467651,285.132874 93.456047,274.008514 101.477982,261.340851 
	C106.800903,266.052673 107.698334,272.277191 108.793434,278.352295 
	C109.202705,280.622742 109.160133,282.984497 109.215767,285.307159 
	C109.470108,295.924896 109.456360,295.925232 98.543190,297.806183 
z"/>
<path fill="#E1E1E2" opacity="1.000000" stroke="none" 
	d="
M161.748322,76.090012 
	C164.482498,70.148575 167.216660,64.207146 170.045502,58.060013 
	C174.019165,61.412117 178.419235,65.123932 182.516479,68.580284 
	C176.676895,84.777901 170.971817,100.602463 165.025574,117.095901 
	C162.457047,116.660942 159.406998,116.144440 156.153976,114.978668 
	C158.577545,108.825768 160.935440,103.172485 163.896820,97.855316 
	C167.841141,90.773232 169.580856,84.125084 162.637802,77.838966 
	C162.184814,77.428833 162.037704,76.680840 161.748322,76.090012 
z"/>
<path fill="#6BECE0" opacity="1.000000" stroke="none" 
	d="
M158.172470,72.128380 
	C150.994675,79.819870 150.917892,90.200356 147.830963,100.155930 
	C147.518402,101.628845 147.204849,102.386406 146.891296,103.143967 
	C142.692368,96.052101 137.723877,89.271454 134.668793,81.717010 
	C133.426056,78.644043 135.818420,73.651360 137.498947,69.961182 
	C139.539673,65.480118 142.575821,61.452385 145.632660,57.286308 
	C150.113495,62.272190 154.142975,67.200287 158.172470,72.128380 
z"/>
<path fill="#DAE8F3" opacity="1.000000" stroke="none" 
	d="
M224.473572,46.527252 
	C229.978912,53.150719 235.232819,59.524151 240.486710,65.897583 
	C240.237244,66.284088 239.987762,66.670593 239.738297,67.057091 
	C227.069855,64.389862 214.527023,60.331326 200.882736,63.557362 
	C200.882736,54.931873 200.517319,46.843700 201.017792,38.809464 
	C201.325211,33.874176 203.844910,32.383808 208.134003,34.813232 
	C213.832825,38.041149 218.889526,42.402721 224.473572,46.527252 
M210.705856,55.996960 
	C216.971176,56.704556 223.236481,57.412155 229.501801,58.119755 
	C224.475830,52.365833 218.885162,47.319420 212.972748,42.683331 
	C205.740402,37.012276 204.287659,37.681522 202.878174,46.569683 
	C202.800705,47.058182 202.602814,47.526356 202.500305,48.012287 
	C200.714493,56.476948 201.646713,57.497532 210.705856,55.996960 
z"/>
<path fill="#6997E9" opacity="1.000000" stroke="none" 
	d="
M146.931702,103.497658 
	C147.204849,102.386406 147.518402,101.628845 147.881531,100.565369 
	C150.156662,96.312874 152.400162,92.376274 154.602722,88.416893 
	C156.824677,84.422668 159.006027,80.405853 161.476746,76.244476 
	C162.037704,76.680840 162.184814,77.428833 162.637802,77.838966 
	C169.580856,84.125084 167.841141,90.773232 163.896820,97.855316 
	C160.935440,103.172485 158.577545,108.825768 155.878448,114.699814 
	C152.861328,111.330605 149.916718,107.590973 146.931702,103.497658 
z"/>
<path fill="#000000" opacity="1.000000" stroke="none" 
	d="
M271.540375,22.061462 
	C272.160645,23.738926 272.443909,25.456421 272.742615,27.843510 
	C263.770386,48.125366 258.773438,68.825256 255.967178,90.122177 
	C253.905655,89.530876 251.844131,88.939575 249.407196,88.236938 
	C253.627029,71.459938 257.917328,54.700737 262.985382,38.180130 
	C264.723755,32.513515 268.408081,27.443867 271.540375,22.061462 
z"/>
<path fill="#FE8AB9" opacity="1.000000" stroke="none" 
	d="
M126.645065,101.755005 
	C128.853882,102.874321 130.813446,103.681190 132.605209,104.765373 
	C134.138260,105.693001 135.478943,106.938545 136.904709,108.043488 
	C135.504044,109.248161 134.150024,110.512924 132.692535,111.644402 
	C130.042755,113.701454 127.331474,115.679291 124.070053,117.629982 
	C119.884079,108.043877 117.303322,105.606125 111.503654,106.979378 
	C113.687668,112.378738 115.837822,117.694405 117.987976,123.010078 
	C110.458481,121.090820 105.801125,106.650345 107.187782,100.813164 
	C107.462753,99.655678 109.382408,98.888885 110.968414,97.865936 
	C116.369804,99.047600 121.346405,100.305237 126.645065,101.755005 
z"/>
<path fill="#E1E1E2" opacity="1.000000" stroke="none" 
	d="
M158.462540,71.953606 
	C154.142975,67.200287 150.113495,62.272190 145.876846,57.050377 
	C147.551971,52.193272 149.434265,47.629875 151.460373,42.717819 
	C156.434357,46.809769 161.268845,50.786972 166.608170,55.179485 
	C163.947632,60.801399 161.350113,66.290115 158.462540,71.953606 
z"/>
<path fill="#C3E621" opacity="1.000000" stroke="none" 
	d="
M124.968292,52.972702 
	C127.100395,49.230942 129.232498,45.489182 131.927307,41.773251 
	C135.689011,45.327984 138.888000,48.856884 142.087006,52.385784 
	C140.721207,55.213215 139.227417,57.987110 138.017502,60.879749 
	C135.817734,66.138878 133.786636,71.468559 131.555420,77.096024 
	C128.546600,71.089951 125.209084,64.427734 121.934578,57.409477 
	C121.997597,57.053436 121.959732,57.086323 121.959732,57.086323 
	C122.426949,56.458302 122.894173,55.830284 123.717911,55.129387 
	C124.074425,55.056503 124.300858,55.246296 124.232971,55.628399 
	C123.374710,61.382027 127.452187,63.509956 131.284348,66.080086 
	C131.095856,61.979965 130.153961,58.165894 128.818710,54.494900 
	C128.589920,53.865902 126.682976,53.847298 125.405739,53.402992 
	C125.260216,53.259266 124.968292,52.972702 124.968292,52.972702 
z"/>
<path fill="#F2B437" opacity="1.000000" stroke="none" 
	d="
M128.186920,36.831673 
	C126.057747,43.298500 123.928589,49.765324 121.879578,56.659233 
	C121.959732,57.086323 121.997597,57.053436 122.013527,57.035271 
	C120.600006,55.104420 119.067619,53.258358 117.772987,51.258385 
	C116.697533,49.597019 116.149147,47.559700 114.940269,46.025360 
	C109.013680,38.503208 109.983673,31.645969 117.152969,25.131287 
	C121.189812,28.992762 124.688362,32.912220 128.186920,36.831673 
M115.619873,39.547276 
	C116.422318,40.778584 117.073616,42.160400 118.088791,43.179855 
	C118.623558,43.716854 120.054474,44.041782 120.607666,43.698994 
	C121.227242,43.315071 121.803299,41.870838 121.546219,41.229588 
	C120.273239,38.054356 118.718719,34.991993 117.263443,31.889845 
	C116.604767,32.054508 115.946098,32.219170 115.287422,32.383835 
	C115.287422,34.529240 115.287422,36.674641 115.619873,39.547276 
z"/>
<path fill="#E1E2E0" opacity="1.000000" stroke="none" 
	d="
M142.370438,52.154747 
	C138.888000,48.856884 135.689011,45.327984 132.217163,41.541496 
	C133.424545,37.851524 134.904800,34.419144 136.529510,30.651773 
	C140.777496,34.016617 144.871124,37.259190 148.777145,40.353153 
	C146.638245,44.394810 144.646057,48.159264 142.370438,52.154747 
z"/>
<path fill="#E6262F" opacity="1.000000" stroke="none" 
	d="
M113.421661,20.177689 
	C112.474625,22.100510 111.431793,23.983330 110.607643,25.957447 
	C109.791107,27.913322 109.195061,29.961248 108.129303,33.049744 
	C104.452660,23.840721 101.041382,15.296359 97.630104,6.751996 
	C98.131218,6.389287 98.632332,6.026577 99.133453,5.663868 
	C100.233803,6.377673 101.334160,7.091478 102.911987,8.298439 
	C103.941704,8.839204 104.493935,8.886812 105.046173,8.934421 
	C105.046173,8.934421 105.011238,8.989507 104.705597,9.212467 
	C107.407181,13.016181 110.414421,16.596933 113.421661,20.177689 
z"/>
<path fill="#E0DEDC" opacity="1.000000" stroke="none" 
	d="
M128.454376,36.640587 
	C124.688362,32.912220 121.189812,28.992762 117.403709,24.879089 
	C117.869873,22.558519 118.623581,20.432167 119.466621,18.053804 
	C121.650948,19.647676 123.648476,21.094767 125.635078,22.556698 
	C133.196991,28.121481 133.195679,28.123270 128.454376,36.640587 
z"/>
<path fill="#E0DEDC" opacity="1.000000" stroke="none" 
	d="
M113.651505,19.899895 
	C110.414421,16.596933 107.407181,13.016181 104.732323,9.193756 
	C108.574188,10.851039 112.083679,12.749995 115.861961,14.794395 
	C115.064369,16.738508 114.472855,18.180307 113.651505,19.899895 
z"/>
<path fill="#E0DEDC" opacity="1.000000" stroke="none" 
	d="
M104.990021,8.620997 
	C104.493935,8.886812 103.941704,8.839204 103.232391,8.464308 
	C103.694839,8.193871 104.314346,8.250723 104.990021,8.620997 
z"/>
<path fill="#C3E621" opacity="1.000000" stroke="none" 
	d="
M123.962082,54.960571 
	C124.064285,54.341267 124.278831,53.817894 124.730835,53.133614 
	C124.968292,52.972702 125.260216,53.259266 125.257019,53.622833 
	C124.936172,54.406368 124.618515,54.826332 124.300858,55.246296 
	C124.300858,55.246296 124.074425,55.056503 123.962082,54.960571 
z"/>
<path fill="#F86A9D" opacity="1.000000" stroke="none" 
	d="
M232.125870,121.872704 
	C232.081161,121.669403 232.240616,121.362709 232.601593,121.035263 
	C232.763992,121.340424 232.606293,121.592026 232.125870,121.872704 
z"/>
<path fill="#F86A9D" opacity="1.000000" stroke="none" 
	d="
M211.475861,140.332550 
	C211.643921,139.931519 212.148849,139.520233 213.007278,139.099548 
	C212.844757,139.500870 212.328735,139.911575 211.475861,140.332550 
z"/>
<path fill="#E9538F" opacity="1.000000" stroke="none" 
	d="
M357.287170,444.009125 
	C357.225189,443.806335 357.421326,443.517059 357.866058,443.129517 
	C357.924866,443.328369 357.735077,443.625519 357.287170,444.009125 
z"/>
<path fill="#F86A9D" opacity="1.000000" stroke="none" 
	d="
M210.361603,141.151199 
	C210.285721,140.914932 210.503677,140.612213 210.999664,140.235657 
	C211.070282,140.469467 210.862854,140.777115 210.361603,141.151199 
z"/>
<path fill="#CCDFED" opacity="1.000000" stroke="none" 
	d="
M323.955444,449.029175 
	C320.039642,450.799713 316.551270,453.421539 312.830353,453.808777 
	C301.563385,454.981262 295.946198,451.025574 292.241943,438.724182 
	C289.970978,431.182648 288.409912,423.168579 288.187439,415.319733 
	C287.625916,395.510925 287.309082,375.644836 288.184937,355.858856 
	C289.194061,333.061737 290.200500,310.134857 297.145477,288.075287 
	C297.990112,285.392456 299.006470,282.689575 300.418427,280.273712 
	C304.254639,273.710022 304.213684,266.992065 300.302765,260.862732 
	C292.375061,248.438202 283.832458,236.407700 275.659393,224.137466 
	C269.041962,214.202744 262.106293,204.432129 256.221252,194.072098 
	C251.242935,185.308197 253.161423,177.172943 259.679291,172.512070 
	C262.686066,177.737457 265.321411,183.238831 268.789581,188.152298 
	C275.952911,198.300735 286.631348,203.900024 297.656372,208.679825 
	C309.540955,213.832230 321.665131,218.428970 333.632080,223.395203 
	C342.939880,227.257874 348.142242,236.531342 345.359863,246.058624 
	C339.400818,266.463287 332.830780,286.689575 326.510651,306.988800 
	C321.210114,324.013306 316.753601,341.157898 317.959137,359.268036 
	C318.406891,365.994385 320.291107,372.035858 323.189117,378.215210 
	C326.204987,384.645905 327.777802,391.955597 328.846466,399.051910 
	C330.642914,410.980621 331.618927,423.037384 332.735046,435.059326 
	C332.906158,436.902130 332.485718,439.200653 331.456116,440.669678 
	C329.384796,443.625000 326.705139,446.153900 323.955444,449.029175 
z"/>
<path fill="#F3FAFF" opacity="1.000000" stroke="none" 
	d="
M245.371582,286.673462 
	C249.638519,305.801788 253.743317,324.563751 257.879089,343.318878 
	C262.659058,364.995270 267.575867,386.642120 272.226990,408.346008 
	C275.936859,425.657715 279.526611,443.000763 282.749237,460.407715 
	C283.614197,465.079803 283.189514,470.050964 282.906219,474.858307 
	C282.625702,479.618652 279.157837,481.560669 274.468750,480.312531 
	C265.577454,477.945984 262.270935,470.142120 257.744812,463.483887 
	C249.277359,451.027710 246.712540,436.549835 244.165756,422.227631 
	C240.084946,399.278656 236.566757,376.225281 233.109482,353.171234 
	C230.535858,336.009583 227.716263,318.832977 226.371689,301.556763 
	C225.450455,289.719879 226.846817,277.699341 227.298248,265.764374 
	C227.339600,264.670929 228.044250,263.602570 228.641220,261.977051 
	C238.942963,267.126556 242.068481,276.725555 245.371582,286.673462 
M252.989838,361.596558 
	C249.869507,351.147766 246.992569,340.615845 243.470474,330.304260 
	C242.499130,327.460480 239.604324,325.273651 237.592087,322.785370 
	C236.952667,323.126068 236.313232,323.466736 235.673813,323.807404 
	C236.223877,330.694916 236.534470,337.611908 237.378693,344.463135 
	C238.732544,355.450470 240.096664,366.456940 242.084229,377.340637 
	C244.579361,391.003845 247.642502,404.565857 250.642990,418.131165 
	C251.030090,419.881134 252.508286,421.389771 253.481064,423.010193 
	C254.031326,422.797882 254.581604,422.585602 255.131866,422.373291 
	C259.172729,402.290466 255.824402,382.386261 252.989838,361.596558 
z"/>
<path fill="#F3FAFF" opacity="1.000000" stroke="none" 
	d="
M138.668274,165.637054 
	C138.467880,170.214462 137.235977,174.581421 137.949844,178.602997 
	C139.266602,186.020981 145.174973,190.246277 151.170502,194.044968 
	C152.410065,194.830353 153.763992,195.435226 155.150864,196.168579 
	C154.783493,196.569290 154.634277,196.891373 154.419434,196.943634 
	C141.320465,200.129990 139.997925,201.808258 139.998062,215.293762 
	C139.998123,221.460388 140.090164,227.629547 139.921478,233.791565 
	C139.885818,235.094772 139.176132,236.700485 138.221451,237.518356 
	C137.763397,237.910736 135.785156,237.061676 134.878616,236.311630 
	C128.618622,231.132355 122.492012,225.792328 116.260963,220.577515 
	C106.267563,212.213913 95.888817,204.500351 81.835114,201.637314 
	C86.978294,194.400848 91.616974,187.592148 96.552559,181.005951 
	C101.921509,173.841461 107.604973,166.913513 113.077896,159.825745 
	C117.097389,154.620255 118.971146,154.587555 124.156960,158.444763 
	C126.563347,160.234650 129.920242,160.702087 132.748856,161.983917 
	C134.755219,162.893143 136.598434,164.162308 138.668274,165.637054 
M123.901375,185.173874 
	C124.320175,184.094879 124.720261,183.008148 125.161156,181.938248 
	C126.687729,178.233810 125.789619,174.887589 122.790138,172.609711 
	C119.456032,170.077728 115.018013,169.736252 112.216385,172.710602 
	C106.927948,178.325058 102.144371,184.494507 97.770805,190.859238 
	C95.423447,194.275330 98.222343,197.301971 101.006844,199.201004 
	C103.871246,201.154541 106.048668,199.630859 108.107635,197.046936 
	C109.789734,194.935974 112.248917,193.398926 114.498276,191.796509 
	C117.433273,189.705627 120.501190,187.801331 123.901375,185.173874 
z"/>
<path fill="#FFA2C3" opacity="1.000000" stroke="none" 
	d="
M200.663361,250.695160 
	C200.280029,251.048889 200.166885,251.179413 200.026001,251.263412 
	C194.667969,254.456985 189.307373,257.646271 183.947128,260.836121 
	C176.841110,256.947205 169.333298,253.627762 162.757172,248.987854 
	C157.567993,245.326508 152.871643,240.614426 151.611130,233.588287 
	C150.521698,227.515747 152.627335,222.206482 158.112961,219.365616 
	C164.435944,216.091125 170.949478,215.865021 177.275238,219.149353 
	C180.225052,220.680923 182.172470,221.026932 185.167618,218.669739 
	C191.792419,213.456055 202.471832,213.689377 207.998596,218.400742 
	C214.647263,224.068436 214.767670,233.424500 208.124268,242.184830 
	C205.921051,245.090134 203.332794,247.703430 200.663361,250.695160 
z"/>
<path fill="#1F1F1F" opacity="1.000000" stroke="none" 
	d="
M162.980011,172.987671 
	C166.807678,180.601578 173.127411,183.192017 179.389740,179.810623 
	C183.037308,177.841095 185.240280,174.873459 184.330536,170.457962 
	C183.463272,166.248734 184.580704,163.112000 188.996307,162.023560 
	C192.820587,161.080902 195.583267,163.624908 196.591125,168.613831 
	C199.661102,183.810379 183.498764,197.171616 167.526978,192.548325 
	C160.837784,190.612015 155.707108,186.657379 152.798157,180.135132 
	C151.397156,176.993896 151.043701,173.906021 154.030869,171.555740 
	C157.175797,169.081375 160.203842,169.706192 162.980011,172.987671 
z"/>
<path fill="#252525" opacity="1.000000" stroke="none" 
	d="
M255.997345,90.560364 
	C258.773438,68.825256 263.770386,48.125366 272.919617,28.186581 
	C274.105957,26.632048 275.130737,25.404039 276.690247,23.535236 
	C277.936707,25.632116 279.122711,27.299927 279.981110,29.122074 
	C288.354980,46.897644 290.419189,65.265404 283.390900,83.821716 
	C280.077881,92.568886 275.429810,100.888878 270.652466,108.968277 
	C268.419189,112.745178 264.239990,116.252174 259.361633,114.458374 
	C254.595963,112.706009 255.654236,107.451553 255.467117,103.459930 
	C255.273254,99.323975 255.810211,95.153770 255.997345,90.560364 
M259.216919,100.815170 
	C259.531342,104.126968 259.845764,107.438774 260.160187,110.750572 
	C260.819824,111.010429 261.479492,111.270294 262.139130,111.530151 
	C265.111755,108.593521 268.727448,106.072304 270.941162,102.645432 
	C278.830566,90.432632 283.300354,76.881104 284.065979,62.360851 
	C284.603912,52.158596 282.755371,42.217422 278.053925,32.224968 
	C277.565765,31.185387 277.077606,30.145805 276.182007,28.238516 
	C266.777344,51.968174 261.082275,75.482918 259.216919,100.815170 
z"/>
<path fill="#CDDFED" opacity="1.000000" stroke="none" 
	d="
M280.363647,116.386299 
	C274.001709,125.102837 267.834595,133.516266 261.203644,142.562500 
	C260.811096,133.775345 262.064270,125.955833 267.372070,119.161507 
	C276.935394,106.919739 285.803101,94.264275 290.058502,79.067635 
	C291.925262,72.401207 293.193268,65.567108 294.706543,58.925781 
	C302.436707,70.485733 295.651489,98.159294 280.363647,116.386299 
z"/>
<path fill="#CDDFED" opacity="1.000000" stroke="none" 
	d="
M294.522888,55.540031 
	C294.479340,55.564228 294.566437,55.515831 294.522888,55.540031 
z"/>
<path fill="#FF8ABA" opacity="1.000000" stroke="none" 
	d="
M295.306763,187.842041 
	C283.105499,179.456406 276.061188,160.842773 279.396393,146.311691 
	C279.989502,143.727615 280.375671,141.042999 281.380188,138.621689 
	C282.336090,136.317673 284.199371,132.386063 285.273193,132.511551 
	C288.468842,132.884949 292.342499,134.129822 294.381531,136.427292 
	C299.671143,142.387268 300.400818,150.203857 301.001526,157.862808 
	C301.311523,161.815170 301.449341,165.792038 301.993073,169.712341 
	C302.701447,174.820282 305.942444,176.954086 311.021088,177.058228 
	C319.468964,177.231491 327.934326,177.393951 336.349457,178.083954 
	C344.691956,178.768005 354.948669,187.987823 356.752075,195.735046 
	C358.406586,202.842575 356.079132,205.286545 349.038239,203.466293 
	C338.127869,200.645676 327.241882,197.719498 316.405334,194.628448 
	C309.416046,192.634796 302.533630,190.266251 295.306763,187.842041 
M290.456177,161.950211 
	C288.788422,156.704697 287.120697,151.459167 285.088806,145.068268 
	C279.027130,159.200073 289.854462,181.550781 304.530426,185.849426 
	C303.202972,183.064743 302.766266,180.128204 301.114227,179.044785 
	C295.066284,175.078400 292.412201,169.272720 290.456177,161.950211 
z"/>
<path fill="#FF8BBA" opacity="1.000000" stroke="none" 
	d="
M370.132751,255.179321 
	C370.407928,251.624084 370.683075,248.068848 370.958252,244.513611 
	C371.645782,244.295654 372.333313,244.077713 373.020844,243.859756 
	C375.028564,247.797867 377.570221,251.564484 378.904572,255.718887 
	C380.461456,260.566071 381.383026,265.714539 381.837036,270.798645 
	C382.810089,281.695740 383.568665,292.627228 383.912384,303.560394 
	C384.184509,312.214905 380.639557,319.117767 373.459625,324.471710 
	C367.135284,329.187653 360.548126,334.054840 355.724457,340.157410 
	C349.063477,348.584412 348.369171,359.499725 347.027924,369.874573 
	C346.476532,374.139435 346.219391,378.442352 344.865845,383.054596 
	C343.258270,377.724976 341.723755,372.372009 340.030151,367.069885 
	C333.595306,346.924438 339.034790,328.413483 347.849670,310.405609 
	C353.465607,298.932861 359.284271,287.559387 365.413818,276.444458 
	C364.218048,283.122986 363.453033,289.869812 360.815948,295.781525 
	C357.384766,303.473358 352.449554,310.491913 348.193481,317.818787 
	C343.684631,325.580811 344.126038,333.711853 346.631744,341.914307 
	C347.001434,343.124542 348.111481,344.108582 349.003906,345.374420 
	C349.877930,344.423187 350.360992,344.115875 350.516296,343.689240 
	C351.082733,342.133118 351.596252,340.552399 352.028839,338.953674 
	C355.023926,327.884613 357.427307,316.540985 367.437988,309.044647 
	C368.552765,308.209869 369.214966,306.643982 369.840698,305.302277 
	C377.168549,289.589630 377.519257,273.265625 374.177612,256.574524 
	C373.516724,253.273590 372.115234,253.797348 370.132751,255.179321 
z"/>
<path fill="#FFFCFD" opacity="1.000000" stroke="none" 
	d="
M370.031433,255.533234 
	C372.115234,253.797348 373.516724,253.273590 374.177612,256.574524 
	C377.519257,273.265625 377.168549,289.589630 369.840698,305.302277 
	C369.214966,306.643982 368.552765,308.209869 367.437988,309.044647 
	C357.427307,316.540985 355.023926,327.884613 352.028839,338.953674 
	C351.596252,340.552399 351.082733,342.133118 350.516296,343.689240 
	C350.360992,344.115875 349.877930,344.423187 349.003906,345.374420 
	C348.111481,344.108582 347.001434,343.124542 346.631744,341.914307 
	C344.126038,333.711853 343.684631,325.580811 348.193481,317.818787 
	C352.449554,310.491913 357.384766,303.473358 360.815948,295.781525 
	C363.453033,289.869812 364.218048,283.122986 365.736023,276.338867 
	C367.081055,269.249176 368.505585,262.568176 370.031433,255.533234 
z"/>
<path fill="#FFF9FB" opacity="1.000000" stroke="none" 
	d="
M118.247864,123.226196 
	C115.837822,117.694405 113.687668,112.378738 111.503654,106.979378 
	C117.303322,105.606125 119.884079,108.043877 123.768906,117.787109 
	C124.081146,118.735268 124.118729,119.466095 124.158569,120.855362 
	C124.444519,122.009827 124.728210,122.505859 125.011909,123.001892 
	C128.940460,126.601151 132.805923,130.272736 136.819550,133.774490 
	C139.538055,136.146301 142.632141,138.105743 145.220413,140.600189 
	C146.337708,141.676971 146.601715,143.639099 146.562363,145.820892 
	C133.552139,142.840927 124.703018,134.835815 118.247864,123.226196 
z"/>
<path fill="#FE8AB9" opacity="1.000000" stroke="none" 
	d="
M125.227638,122.845505 
	C124.728210,122.505859 124.444519,122.009827 124.226768,121.215454 
	C124.676262,121.507774 125.059814,122.098450 125.227638,122.845505 
z"/>
<path fill="#F4E9DC" opacity="1.000000" stroke="none" 
	d="
M72.091553,243.976288 
	C72.804993,251.234497 75.340736,257.662415 81.699394,263.150024 
	C76.831238,268.370209 72.302704,273.314178 67.670799,278.159363 
	C64.980530,280.973511 62.487473,279.938934 60.771576,277.104065 
	C56.082756,269.357605 53.391140,260.810272 55.713825,251.967636 
	C58.057434,243.045410 61.840950,234.494568 65.114738,225.826752 
	C66.471352,222.234924 69.315994,221.289444 72.811592,222.457642 
	C75.137390,223.234894 77.367104,224.299652 80.132805,225.438751 
	C77.574898,231.184830 75.190491,236.541138 72.430229,241.589783 
	C72.636864,239.217743 73.803207,237.105331 73.638519,235.102371 
	C73.472061,233.077850 71.987007,231.161758 71.079590,229.198166 
	C69.220016,230.121201 66.498222,230.552673 65.644936,232.049408 
	C61.104816,240.013184 59.599537,248.854950 60.186287,257.897125 
	C60.414188,261.409180 61.866825,264.931488 63.235939,268.253632 
	C64.512383,271.350891 67.023453,271.344147 69.177887,269.135651 
	C72.355560,265.878296 73.496674,262.199738 72.442650,257.361237 
	C71.509460,253.077377 72.147293,248.451294 72.091553,243.976288 
z"/>
<path fill="#FFFEFE" opacity="1.000000" stroke="none" 
	d="
M72.077957,243.660156 
	C72.147293,248.451294 71.509460,253.077377 72.442650,257.361237 
	C73.496674,262.199738 72.355560,265.878296 69.177887,269.135651 
	C67.023453,271.344147 64.512383,271.350891 63.235939,268.253632 
	C61.866825,264.931488 60.414188,261.409180 60.186287,257.897125 
	C59.599537,248.854950 61.104816,240.013184 65.644936,232.049408 
	C66.498222,230.552673 69.220016,230.121201 71.079590,229.198166 
	C71.987007,231.161758 73.472061,233.077850 73.638519,235.102371 
	C73.803207,237.105331 72.636864,239.217743 72.087242,241.681793 
	C72.101532,242.502289 72.082947,242.923157 72.077957,243.660156 
z"/>
<path fill="#252525" opacity="1.000000" stroke="none" 
	d="
M86.691193,231.594193 
	C87.850388,230.891449 88.683144,230.298767 89.610580,230.005035 
	C94.476433,228.463989 99.503418,230.430496 101.459152,234.565384 
	C103.217285,238.282501 101.904564,242.618073 98.305359,244.981461 
	C94.298378,247.612625 88.772408,246.912277 85.649002,243.377441 
	C82.657654,239.992035 82.903038,236.264740 86.691193,231.594193 
M87.417702,240.663132 
	C88.434235,241.459518 89.565422,243.035889 90.445869,242.906479 
	C93.118088,242.513641 96.086388,241.975571 98.120232,240.421829 
	C98.979645,239.765274 98.453255,235.109573 97.400230,234.582565 
	C95.096947,233.429871 91.788147,232.974762 89.417847,233.782837 
	C88.096062,234.233444 87.832642,237.788589 87.417702,240.663132 
z"/>
<path fill="#CDDFED" opacity="1.000000" stroke="none" 
	d="
M210.248306,56.001602 
	C201.646713,57.497532 200.714493,56.476948 202.500305,48.012287 
	C202.602814,47.526356 202.800705,47.058182 202.878174,46.569683 
	C204.287659,37.681522 205.740402,37.012276 212.972748,42.683331 
	C218.885162,47.319420 224.475830,52.365833 229.501801,58.119755 
	C223.236481,57.412155 216.971176,56.704556 210.248306,56.001602 
z"/>
<path fill="#FAFDED" opacity="1.000000" stroke="none" 
	d="
M124.232971,55.628399 
	C124.618515,54.826332 124.936172,54.406368 125.402542,53.766563 
	C126.682976,53.847298 128.589920,53.865902 128.818710,54.494900 
	C130.153961,58.165894 131.095856,61.979965 131.284348,66.080086 
	C127.452187,63.509956 123.374710,61.382027 124.232971,55.628399 
z"/>
<path fill="#FAFDED" opacity="1.000000" stroke="none" 
	d="
M115.453644,39.183662 
	C115.287422,36.674641 115.287422,34.529240 115.287422,32.383835 
	C115.946098,32.219170 116.604767,32.054508 117.263443,31.889845 
	C118.718719,34.991993 120.273239,38.054356 121.546219,41.229588 
	C121.803299,41.870838 121.227242,43.315071 120.607666,43.698994 
	C120.054474,44.041782 118.623558,43.716854 118.088791,43.179855 
	C117.073616,42.160400 116.422318,40.778584 115.453644,39.183662 
z"/>
<path fill="#FFFFFF" opacity="1.000000" stroke="none" 
	d="
M253.002014,362.032776 
	C255.824402,382.386261 259.172729,402.290466 255.131866,422.373291 
	C254.581604,422.585602 254.031326,422.797882 253.481064,423.010193 
	C252.508286,421.389771 251.030090,419.881134 250.642990,418.131165 
	C247.642502,404.565857 244.579361,391.003845 242.084229,377.340637 
	C240.096664,366.456940 238.732544,355.450470 237.378693,344.463135 
	C236.534470,337.611908 236.223877,330.694916 235.673813,323.807404 
	C236.313232,323.466736 236.952667,323.126068 237.592087,322.785370 
	C239.604324,325.273651 242.499130,327.460480 243.470474,330.304260 
	C246.992569,340.615845 249.869507,351.147766 253.002014,362.032776 
z"/>
<path fill="#FFFFFF" opacity="1.000000" stroke="none" 
	d="
M123.706650,185.495316 
	C120.501190,187.801331 117.433273,189.705627 114.498276,191.796509 
	C112.248917,193.398926 109.789734,194.935974 108.107635,197.046936 
	C106.048668,199.630859 103.871246,201.154541 101.006844,199.201004 
	C98.222343,197.301971 95.423447,194.275330 97.770805,190.859238 
	C102.144371,184.494507 106.927948,178.325058 112.216385,172.710602 
	C115.018013,169.736252 119.456032,170.077728 122.790138,172.609711 
	C125.789619,174.887589 126.687729,178.233810 125.161156,181.938248 
	C124.720261,183.008148 124.320175,184.094879 123.706650,185.495316 
z"/>
<path fill="#CDBBA7" opacity="1.000000" stroke="none" 
	d="
M278.147797,32.941170 
	C282.755371,42.217422 284.603912,52.158596 284.065979,62.360851 
	C283.300354,76.881104 278.830566,90.432632 270.941162,102.645432 
	C268.727448,106.072304 265.111755,108.593521 262.139130,111.530151 
	C261.479492,111.270294 260.819824,111.010429 260.160187,110.750572 
	C259.845764,107.438774 259.531342,104.126968 259.648743,100.375076 
	C262.006714,98.075790 264.733765,96.568420 265.729950,94.300682 
	C272.550629,78.774101 276.936493,62.630875 277.066528,45.497501 
	C277.098328,41.309563 277.770203,37.126484 278.147797,32.941170 
z"/>
<path fill="#E2D5C3" opacity="1.000000" stroke="none" 
	d="
M278.100861,32.583069 
	C277.770203,37.126484 277.098328,41.309563 277.066528,45.497501 
	C276.936493,62.630875 272.550629,78.774101 265.729950,94.300682 
	C264.733765,96.568420 262.006714,98.075790 259.737488,99.942902 
	C261.082275,75.482918 266.777344,51.968174 276.182007,28.238516 
	C277.077606,30.145805 277.565765,31.185387 278.100861,32.583069 
z"/>
<path fill="#FFF9FB" opacity="1.000000" stroke="none" 
	d="
M290.598999,162.323700 
	C292.412201,169.272720 295.066284,175.078400 301.114227,179.044785 
	C302.766266,180.128204 303.202972,183.064743 304.530426,185.849426 
	C289.854462,181.550781 279.027130,159.200073 285.088806,145.068268 
	C287.120697,151.459167 288.788422,156.704697 290.598999,162.323700 
z"/>
<path fill="#C1AE97" opacity="1.000000" stroke="none" 
	d="
M87.254990,240.303909 
	C87.832642,237.788589 88.096062,234.233444 89.417847,233.782837 
	C91.788147,232.974762 95.096947,233.429871 97.400230,234.582565 
	C98.453255,235.109573 98.979645,239.765274 98.120232,240.421829 
	C96.086388,241.975571 93.118088,242.513641 90.445869,242.906479 
	C89.565422,243.035889 88.434235,241.459518 87.254990,240.303909 
z"/>
</svg>